<?xml version="1.0" encoding="UTF-8" standalone="no"?>
<!DOCTYPE svg PUBLIC "-//W3C//DTD SVG 1.1//EN" "http://www.w3.org/Graphics/SVG/1.1/DTD/svg11.dtd">
<svg xmlns="http://www.w3.org/2000/svg" version="1.1" viewBox="0.00 0.00 279.00 300.00">
<path fill="#147efb" d="
  M 223.95 186.86
  C 227.28 188.35 230.47 190.09 233.84 191.47
  Q 237.42 192.94 235.67 196.71
  C 219.77 231.02 189.03 254.75 151.57 260.53
  Q 148.35 261.02 144.56 261.14
  C 141.38 261.25 138.28 261.84 134.99 261.75
  Q 85.31 260.42 52.94 223.99
  Q 32.07 200.51 26.59 167.66
  Q 26.04 164.38 25.96 161.05
  C 25.86 156.65 24.58 152.07 25.23 147.67
  C 25.88 143.34 25.81 139.10 26.41 134.88
  Q 30.93 103.19 51.38 78.84
  Q 77.54 47.68 118.98 40.49
  C 123.08 39.77 128.31 39.99 133.08 39.12
  C 134.21 38.92 136.19 38.87 137.32 39.06
  C 142.21 39.90 147.16 39.81 152.06 40.57
  C 189.29 46.33 220.55 70.63 236.02 105.06
  A 2.06 2.06 0.0 0 1 235.66 107.30
  Q 234.57 108.49 233.18 108.99
  C 229.94 110.14 226.92 111.73 223.82 113.12
  A 2.22 2.21 -24.8 0 1 220.92 112.06
  Q 218.91 107.91 216.69 103.78
  Q 211.26 93.68 201.34 83.84
  Q 180.66 63.31 152.99 58.50
  Q 112.87 51.53 80.26 75.03
  Q 70.32 82.20 62.46 92.30
  Q 46.97 112.18 43.76 136.21
  Q 42.58 145.07 43.03 155.51
  C 44.25 183.78 59.37 210.73 82.51 226.58
  Q 103.43 240.92 127.83 242.78
  Q 165.53 245.65 194.87 222.19
  Q 200.03 218.06 207.13 210.14
  C 209.33 207.69 210.92 205.03 212.92 202.50
  Q 214.08 201.03 215.00 199.39
  Q 218.12 193.85 220.77 188.05
  A 2.41 2.41 0.0 0 1 223.95 186.86
  Z"
/>
<path fill="#147efb" d="
  M 101.90 121.15
  Q 100.92 120.74 100.17 120.06
  Q 99.97 119.88 99.70 119.96
  Q 99.56 120.01 99.44 119.95
  Q 99.05 119.78 99.47 119.78
  Q 114.37 119.82 128.75 119.78
  Q 129.70 119.77 128.81 120.12
  Q 128.15 120.38 127.60 120.99
  Q 127.28 121.36 127.20 121.83
  Q 126.11 128.89 128.87 135.38
  Q 137.30 155.23 144.50 171.72
  Q 145.29 173.52 144.52 175.51
  Q 141.13 184.35 137.18 193.78
  A 0.97 0.96 -45.5 0 1 135.41 193.80
  Q 121.83 162.86 108.60 132.68
  Q 105.81 126.32 102.68 121.78
  Q 102.38 121.36 101.90 121.15
  Z"
/>
<path fill="#147efb" d="
  M 171.15 121.56
  Q 166.82 125.43 164.47 129.60
  Q 161.42 135.04 158.51 141.33
  Q 158.11 142.19 157.98 141.25
  Q 157.77 139.64 158.31 138.19
  Q 158.84 136.76 158.95 135.20
  Q 159.12 132.65 158.55 130.54
  Q 158.26 129.42 158.08 128.24
  Q 157.88 126.95 157.32 125.82
  Q 154.68 120.47 148.96 119.83
  A 0.04 0.03 46.8 0 1 148.96 119.76
  Q 162.12 119.81 174.78 119.79
  Q 176.20 119.79 174.82 120.09
  Q 174.52 120.16 174.22 120.12
  Q 173.65 120.05 173.28 120.50
  Q 172.81 121.06 172.08 121.14
  Q 171.55 121.20 171.15 121.56
  Z"
/>
</svg>
