<?xml version="1.0" standalone="no"?>
<!DOCTYPE svg PUBLIC "-//W3C//DTD SVG 20010904//EN"
 "http://www.w3.org/TR/2001/REC-SVG-20010904/DTD/svg10.dtd">
<svg version="1.0" xmlns="http://www.w3.org/2000/svg"
 width="810.000000pt" height="788.000000pt" viewBox="0 0 810.000000 788.000000"
 preserveAspectRatio="xMidYMid meet">

<g transform="translate(0.000000,788.000000) scale(0.100000,-0.100000)"
fill="#000000" stroke="none">
<path d="M2032 5807 c-1013 -1013 -1842 -1847 -1842 -1854 0 -6 564 -570 1253
-1254 688 -684 1522 -1512 1852 -1841 330 -329 601 -598 602 -598 2 0 3 192 3
426 l0 426 -892 900 c-491 495 -1088 1097 -1325 1336 -238 240 -433 437 -433
439 0 2 466 3 1035 3 l1035 0 0 -646 0 -645 122 -127 c68 -70 200 -206 293
-303 94 -97 173 -177 178 -178 4 0 7 1295 7 2879 l0 2880 -23 0 c-16 0 -503
-481 -1865 -1843z m1286 -489 l-3 -903 -912 -3 c-502 -1 -913 1 -913 5 0 17
1796 1803 1813 1803 16 0 17 -47 15 -902z"/>
<path d="M4160 3955 c0 -2032 1 -3695 3 -3695 7 1 789 771 1452 1430 418 415
852 845 965 955 112 110 448 443 747 739 485 482 543 543 543 571 0 28 -57 88
-533 561 -293 291 -629 623 -747 739 -118 115 -557 550 -975 965 -665 661
-1445 1429 -1452 1430 -2 0 -3 -1663 -3 -3695z m1733 1147 l1137 -1137 -1135
-1135 c-624 -624 -1139 -1136 -1145 -1138 -7 -3 -10 721 -10 2272 0 1252 3
2276 8 2276 4 0 519 -512 1145 -1138z"/>
</g>
</svg>
