<svg xmlns="http://www.w3.org/2000/svg" xmlns:xlink="http://www.w3.org/1999/xlink" viewBox="0 0 1280 1280" width="1280" height="1280" preserveAspectRatio="xMidYMid meet" style="width: 100%; height: 100%; transform: translate3d(0px, 0px, 0px); content-visibility: visible;"><defs><clipPath id="__lottie_element_426"><rect width="1280" height="1280" x="0" y="0"></rect></clipPath><clipPath id="__lottie_element_434"><path d="M0,0 L1280,0 L1280,1280 L0,1280z"></path></clipPath><clipPath id="__lottie_element_438"><path d="M0,0 L1280,0 L1280,1280 L0,1280z"></path></clipPath><symbol id="__lottie_element_441"><g><g transform="matrix(0.9699738025665283,0.007142446469515562,-0.007142446469515562,0.9699738025665283,68.75364685058594,118.22947692871094)" opacity="1" style="display: block;"><g opacity="1" transform="matrix(1,0,0,1,507.7829895019531,680.6320190429688)"><path fill="rgb(0,184,161)" fill-opacity="1" d=" M63.60200119018555,110.48300170898438 C61.82099914550781,111.52300262451172 59.8650016784668,112.00700378417969 57.93899917602539,112.00700378417969 C54.027000427246094,112.00700378417969 50.22800064086914,109.98899841308594 48.12799835205078,106.36499786376953 C48.12799835205078,106.36499786376953 -62.53099822998047,-84.69300079345703 -62.53099822998047,-84.69300079345703 C-62.53099822998047,-84.69300079345703 -67.802001953125,-93.80400085449219 -67.802001953125,-93.80400085449219 C-70.86000061035156,-99.08599853515625 -69.1709976196289,-105.83000183105469 -64.03399658203125,-109.052001953125 C-63.91999816894531,-109.13500213623047 -63.797000885009766,-109.20700073242188 -63.67300033569336,-109.27899932861328 C-63.12799835205078,-109.5979995727539 -62.5620002746582,-109.86599731445312 -61.994998931884766,-110.0719985961914 C-56.89899826049805,-112.00700378417969 -51.0099983215332,-110.0199966430664 -48.19900131225586,-105.1500015258789 C-48.19900131225586,-105.1500015258789 -42.24800109863281,-94.875 -42.24800109863281,-94.875 C-42.24800109863281,-94.875 67.73100280761719,95.00800323486328 67.73100280761719,95.00800323486328 C70.86000061035156,100.42400360107422 69.01799774169922,107.35299682617188 63.60200119018555,110.48300170898438z"></path><path stroke-linecap="butt" stroke-linejoin="miter" fill-opacity="0" stroke-miterlimit="10" stroke="rgb(52,52,52)" stroke-opacity="1" stroke-width="3" d=" M63.60200119018555,110.48300170898438 C61.82099914550781,111.52300262451172 59.8650016784668,112.00700378417969 57.93899917602539,112.00700378417969 C54.027000427246094,112.00700378417969 50.22800064086914,109.98899841308594 48.12799835205078,106.36499786376953 C48.12799835205078,106.36499786376953 -62.53099822998047,-84.69300079345703 -62.53099822998047,-84.69300079345703 C-62.53099822998047,-84.69300079345703 -67.802001953125,-93.80400085449219 -67.802001953125,-93.80400085449219 C-70.86000061035156,-99.08599853515625 -69.1709976196289,-105.83000183105469 -64.03399658203125,-109.052001953125 C-63.91999816894531,-109.13500213623047 -63.797000885009766,-109.20700073242188 -63.67300033569336,-109.27899932861328 C-63.12799835205078,-109.5979995727539 -62.5620002746582,-109.86599731445312 -61.994998931884766,-110.0719985961914 C-56.89899826049805,-112.00700378417969 -51.0099983215332,-110.0199966430664 -48.19900131225586,-105.1500015258789 C-48.19900131225586,-105.1500015258789 -42.24800109863281,-94.875 -42.24800109863281,-94.875 C-42.24800109863281,-94.875 67.73100280761719,95.00800323486328 67.73100280761719,95.00800323486328 C70.86000061035156,100.42400360107422 69.01799774169922,107.35299682617188 63.60200119018555,110.48300170898438z"></path></g><g opacity="1" transform="matrix(1,0,0,1,320.9670104980469,312.5690002441406)"><path fill="rgb(0,184,161)" fill-opacity="1" d=" M250.10800170898438,-165.93600463867188 C204.4980010986328,-232.7449951171875 135.60000610351562,-277.78900146484375 56.10599899291992,-292.7690124511719 C-23.386999130249023,-307.7590026855469 -103.95099639892578,-290.8949890136719 -170.75900268554688,-245.28500366210938 C-237.5679931640625,-199.6649932861328 -282.61199951171875,-130.76600646972656 -297.60198974609375,-51.28300094604492 C-312.5929870605469,28.209999084472656 -295.7279968261719,108.78399658203125 -250.10800170898438,175.59300231933594 C-204.4980010986328,242.4010009765625 -135.60000610351562,287.44500732421875 -56.106998443603516,302.4360046386719 C-37.18299865722656,305.99798583984375 -18.20800018310547,307.7590026855469 0.6330000162124634,307.7590026855469 C43.659000396728516,307.7590026855469 85.96399688720703,298.57501220703125 125.15899658203125,280.6809997558594 C132.02699279785156,277.5509948730469 138.79100036621094,274.15301513671875 145.44200134277344,270.49798583984375 C154.07000732421875,265.75201416015625 162.5229949951172,260.56298828125 170.75900268554688,254.9409942626953 C237.5679931640625,209.33200073242188 282.61199951171875,140.43299865722656 297.60198974609375,60.939998626708984 C312.5929870605469,-18.55299949645996 295.7179870605469,-99.12799835205078 250.10800170898438,-165.93600463867188z"></path><path stroke-linecap="butt" stroke-linejoin="miter" fill-opacity="0" stroke-miterlimit="10" stroke="rgb(52,52,52)" stroke-opacity="1" stroke-width="3" d=" M250.10800170898438,-165.93600463867188 C204.4980010986328,-232.7449951171875 135.60000610351562,-277.78900146484375 56.10599899291992,-292.7690124511719 C-23.386999130249023,-307.7590026855469 -103.95099639892578,-290.8949890136719 -170.75900268554688,-245.28500366210938 C-237.5679931640625,-199.6649932861328 -282.61199951171875,-130.76600646972656 -297.60198974609375,-51.28300094604492 C-312.5929870605469,28.209999084472656 -295.7279968261719,108.78399658203125 -250.10800170898438,175.59300231933594 C-204.4980010986328,242.4010009765625 -135.60000610351562,287.44500732421875 -56.106998443603516,302.4360046386719 C-37.18299865722656,305.99798583984375 -18.20800018310547,307.7590026855469 0.6330000162124634,307.7590026855469 C43.659000396728516,307.7590026855469 85.96399688720703,298.57501220703125 125.15899658203125,280.6809997558594 C132.02699279785156,277.5509948730469 138.79100036621094,274.15301513671875 145.44200134277344,270.49798583984375 C154.07000732421875,265.75201416015625 162.5229949951172,260.56298828125 170.75900268554688,254.9409942626953 C237.5679931640625,209.33200073242188 282.61199951171875,140.43299865722656 297.60198974609375,60.939998626708984 C312.5929870605469,-18.55299949645996 295.7179870605469,-99.12799835205078 250.10800170898438,-165.93600463867188z"></path></g></g></g></symbol><mask id="__lottie_element_441_1" mask-type="alpha"><use xlink:href="#__lottie_element_441"></use></mask><symbol id="__lottie_element_486"><g><g transform="matrix(0.9943385720252991,0.10625847429037094,-0.10625847429037094,0.9943385720252991,553.5225219726562,220.33494567871094)" opacity="1" style="display: block;"><g opacity="1" transform="matrix(1,0,0,1,321.1289978027344,395.8059997558594)"><path fill="rgb(255,254,255)" fill-opacity="1" d=" M-201.7010040283203,306.65899658203125 C-223.64614868164062,285.6122131347656 -236.7310028076172,256.9830017089844 -240.1820068359375,226.77200317382812 C-251.4290008544922,128.29200744628906 -313.6289978027344,-257.0769958496094 -199.86500549316406,-317.66400146484375 C-67.2229995727539,-388.30499267578125 234.6531219482422,-73.04535675048828 273.97698974609375,68.83300018310547 C310.7203674316406,201.3520050048828 130.1973114013672,273.749267578125 75.6323013305664,292.84228515625 C28.863304138183594,309.2082824707031 -136.88954162597656,368.9944763183594 -201.7010040283203,306.65899658203125z"></path><path stroke-linecap="round" stroke-linejoin="round" fill-opacity="0" stroke="rgb(52,52,52)" stroke-opacity="1" stroke-width="3" d=" M-201.7010040283203,306.65899658203125 C-223.64614868164062,285.6122131347656 -236.7310028076172,256.9830017089844 -240.1820068359375,226.77200317382812 C-251.4290008544922,128.29200744628906 -313.6289978027344,-257.0769958496094 -199.86500549316406,-317.66400146484375 C-67.2229995727539,-388.30499267578125 234.6531219482422,-73.04535675048828 273.97698974609375,68.83300018310547 C310.7203674316406,201.3520050048828 130.1973114013672,273.749267578125 75.6323013305664,292.84228515625 C28.863304138183594,309.2082824707031 -136.88954162597656,368.9944763183594 -201.7010040283203,306.65899658203125z"></path></g><g opacity="1" transform="matrix(1,0,0,1,357.8399963378906,611.1949462890625)"><path stroke-linecap="round" stroke-linejoin="round" fill-opacity="0" stroke="rgb(52,52,52)" stroke-opacity="1" stroke-width="3" d=" M-197.21087646484375,104.97891235351562 C-225.66734313964844,66.35074615478516 -138.63710021972656,-15.503366470336914 -18.61381721496582,-58.451812744140625 C101.40946960449219,-101.4006118774414 217.71121215820312,-110.1732406616211 227.5153045654297,-59.749664306640625"></path></g></g></g></symbol><mask id="__lottie_element_486_1" mask-type="alpha"><use xlink:href="#__lottie_element_486"></use></mask><symbol id="__lottie_element_525"><g><g transform="matrix(0.9943385720252991,0.10625847429037094,-0.10625847429037094,0.9943385720252991,553.5225219726562,220.33494567871094)" opacity="1" style="display: block;"><g opacity="1" transform="matrix(1,0,0,1,321.1289978027344,395.8059997558594)"><path fill="rgb(255,254,255)" fill-opacity="1" d=" M-201.7010040283203,306.65899658203125 C-223.64614868164062,285.6122131347656 -236.7310028076172,256.9830017089844 -240.1820068359375,226.77200317382812 C-251.4290008544922,128.29200744628906 -313.6289978027344,-257.0769958496094 -199.86500549316406,-317.66400146484375 C-67.2229995727539,-388.30499267578125 234.6531219482422,-73.04535675048828 273.97698974609375,68.83300018310547 C310.7203674316406,201.3520050048828 130.1973114013672,273.749267578125 75.6323013305664,292.84228515625 C28.863304138183594,309.2082824707031 -136.88954162597656,368.9944763183594 -201.7010040283203,306.65899658203125z"></path><path stroke-linecap="round" stroke-linejoin="round" fill-opacity="0" stroke="rgb(52,52,52)" stroke-opacity="1" stroke-width="3" d=" M-201.7010040283203,306.65899658203125 C-223.64614868164062,285.6122131347656 -236.7310028076172,256.9830017089844 -240.1820068359375,226.77200317382812 C-251.4290008544922,128.29200744628906 -313.6289978027344,-257.0769958496094 -199.86500549316406,-317.66400146484375 C-67.2229995727539,-388.30499267578125 234.6531219482422,-73.04535675048828 273.97698974609375,68.83300018310547 C310.7203674316406,201.3520050048828 130.1973114013672,273.749267578125 75.6323013305664,292.84228515625 C28.863304138183594,309.2082824707031 -136.88954162597656,368.9944763183594 -201.7010040283203,306.65899658203125z"></path></g><g opacity="1" transform="matrix(1,0,0,1,357.8399963378906,611.1949462890625)"><path stroke-linecap="round" stroke-linejoin="round" fill-opacity="0" stroke="rgb(52,52,52)" stroke-opacity="1" stroke-width="3" d=" M-197.21087646484375,104.97891235351562 C-225.66734313964844,66.35074615478516 -138.63710021972656,-15.503366470336914 -18.61381721496582,-58.451812744140625 C101.40946960449219,-101.4006118774414 217.71121215820312,-110.1732406616211 227.5153045654297,-59.749664306640625"></path></g></g></g></symbol><mask id="__lottie_element_525_1" mask-type="alpha"><use xlink:href="#__lottie_element_525"></use></mask></defs><g clip-path="url(#__lottie_element_426)"><g transform="matrix(1,0,0,1,78.42901611328125,106.125)" opacity="1" style="display: block;"><g opacity="1" transform="matrix(1,0,0,1,572.9949951171875,560.6179809570312)"><path fill="rgb(231,237,241)" fill-opacity="1" d=" M132.71400451660156,-539.5369873046875 C61.29199981689453,-524.68798828125 -6.309000015258789,-489.71099853515625 -59.119998931884766,-436.71600341796875 C-115.1050033569336,-380.5360107421875 -155.85000610351562,-361.0769958496094 -229.44400024414062,-335.10198974609375 C-290.2650146484375,-313.6340026855469 -348.6610107421875,-285.52801513671875 -398.4519958496094,-243.96499633789062 C-527.593017578125,-121.87899780273438 -572.7449951171875,76.35600280761719 -499.7879943847656,239.89199829101562 C-360.7430114746094,551.5659790039062 137.6300048828125,560.3670043945312 289.3909912109375,256.3380126953125 C313.4200134277344,208.1999969482422 328.3340148925781,154.45700073242188 363.0480041503906,113.35299682617188 C401.1929931640625,68.18800354003906 458.2179870605469,43.277000427246094 494.4049987792969,-3.747999906539917 C528.7750244140625,-48.41299819946289 550.4030151367188,-107.3499984741211 557.4760131835938,-162.843994140625 C572.7449951171875,-282.635986328125 521.9860229492188,-404.5140075683594 425.5780029296875,-477.3810119628906 C340.6239929199219,-541.5900268554688 232.9080047607422,-560.3679809570312 132.71400451660156,-539.5369873046875z"></path></g></g><g transform="matrix(1,0,0,1,364.4410095214844,355.29296875)" opacity="1" style="display: block;"><g opacity="1" transform="matrix(1.0877784490585327,0,0,1.0877784490585327,31.045000076293945,436.47900390625)"><path fill="rgb(0,0,0)" fill-opacity="1" d=" M-1.059999942779541,-4.014999866485596 C-1.059999942779541,-4.014999866485596 4.308000087738037,-8.302000045776367 5.807000160217285,-8.807000160217285 C5.807000160217285,-8.807000160217285 2.8399999141693115,-1.8760000467300415 2.8399999141693115,-1.8760000467300415 C2.8399999141693115,-1.8760000467300415 6.01800012588501,-0.9390000104904175 8.121000289916992,1.4889999628067017 C8.121000289916992,1.4889999628067017 3.2269999980926514,1.3539999723434448 2.5810000896453857,2.247999906539917 C2.5810000896453857,2.247999906539917 1.9220000505447388,8.807000160217285 1.9220000505447388,8.807000160217285 C1.9220000505447388,8.807000160217285 -1.5499999523162842,4.821000099182129 -1.274999976158142,1.6160000562667847 C-1.274999976158142,1.6160000562667847 -5.75600004196167,1.3819999694824219 -8.121000289916992,1.8279999494552612 C-8.121000289916992,1.8279999494552612 -2.8259999752044678,-1.8869999647140503 -2.8259999752044678,-1.8869999647140503 C-2.950000047683716,-2.6579999923706055 -4.504000186920166,-7.4120001792907715 -4.504000186920166,-7.4120001792907715 C-4.504000186920166,-7.4120001792907715 -1.9539999961853027,-4.660999774932861 -1.059999942779541,-4.014999866485596z"></path></g><g opacity="1" transform="matrix(1.0877784490585327,0,0,1.0877784490585327,789.8909912109375,93.62000274658203)"><path fill="rgb(0,0,0)" fill-opacity="1" d=" M3.9149999618530273,-1.1749999523162842 C3.9149999618530273,-1.1749999523162842 8.309000015258789,4.105999946594238 8.843999862670898,5.59499979019165 C8.843999862670898,5.59499979019165 1.8550000190734863,2.7669999599456787 1.8550000190734863,2.7669999599456787 C1.8550000190734863,2.7669999599456787 0.9829999804496765,5.965000152587891 -1.4019999504089355,8.116000175476074 C-1.4019999504089355,8.116000175476074 -1.3669999837875366,3.2200000286102295 -2.2739999294281006,2.5920000076293945 C-2.2739999294281006,2.5920000076293945 -8.843999862670898,2.066999912261963 -8.843999862670898,2.066999912261963 C-8.843999862670898,2.066999912261963 -4.928999900817871,-1.4850000143051147 -1.7200000286102295,-1.274999976158142 C-1.7200000286102295,-1.274999976158142 -1.5770000219345093,-5.761000156402588 -2.071000099182129,-8.116000175476074 C-2.071000099182129,-8.116000175476074 1.7510000467300415,-2.8970000743865967 1.7510000467300415,-2.8970000743865967 C2.5190000534057617,-3.0360000133514404 7.241000175476074,-4.685999870300293 7.241000175476074,-4.685999870300293 C7.241000175476074,-4.685999870300293 4.543000221252441,-2.0820000171661377 3.9149999618530273,-1.1749999523162842z"></path></g><g opacity="1" transform="matrix(1.1020524501800537,0,0,1.1020524501800537,22.92300033569336,610.5189819335938)"><path stroke-linecap="round" stroke-linejoin="round" fill-opacity="0" stroke="rgb(0,0,0)" stroke-opacity="1" stroke-width="3" d=" M-6.24399995803833,-3.684000015258789 C-6.24399995803833,-3.684000015258789 0.4959999918937683,-16.011999130249023 2.9260001182556152,-18.148000717163086 C2.9260001182556152,-18.148000717163086 2.8010001182556152,-2.7300000190734863 2.8010001182556152,-2.7300000190734863 C2.8010001182556152,-2.7300000190734863 9.539999961853027,-3.4730000495910645 15.423999786376953,-0.5540000200271606 C15.423999786376953,-0.5540000200271606 6.083000183105469,3.056999921798706 5.570000171661377,5.255000114440918 C5.570000171661377,5.255000114440918 9.510000228881836,18.14699935913086 9.510000228881836,18.14699935913086 C9.510000228881836,18.14699935913086 -0.18799999356269836,13.371000289916992 -2.2009999752044678,7.107999801635742 C-2.2009999752044678,7.107999801635742 -10.840999603271484,10.206999778747559 -14.949999809265137,12.916000366210938 C-14.949999809265137,12.916000366210938 -7.894000053405762,1.7239999771118164 -7.894000053405762,1.7239999771118164 C-8.736000061035156,0.36800000071525574 -15.423999786376953,-7.373000144958496 -15.423999786376953,-7.373000144958496 C-15.423999786376953,-7.373000144958496 -8.440999984741211,-4.197000026702881 -6.24399995803833,-3.684000015258789z"></path></g><g opacity="1" transform="matrix(1.1020524501800537,0,0,1.1020524501800537,226.82000732421875,592.3720092773438)"><path fill="rgb(0,221,179)" fill-opacity="1" d=" M-4.804999828338623,-4.099999904632568 C-4.804999828338623,-4.099999904632568 1.902999997138977,-14.151000022888184 4.146999835968018,-15.79699993133545 C4.146999835968018,-15.79699993133545 2.871000051498413,-2.5959999561309814 2.871000051498413,-2.5959999561309814 C2.871000051498413,-2.5959999561309814 8.70199966430664,-2.7230000495910645 13.520999908447266,0.2240000069141388 C13.520999908447266,0.2240000069141388 5.244999885559082,2.6089999675750732 4.638999938964844,4.453000068664551 C4.638999938964844,4.453000068664551 7.039000034332275,15.79699993133545 7.039000034332275,15.79699993133545 C7.039000034332275,15.79699993133545 1.7929999828338623,10.824999809265137 -2.1579999923706055,5.452000141143799 C-2.1579999923706055,5.452000141143799 -7.880000114440918,9.553000450134277 -13.520999908447266,9.46399974822998 C-13.520999908447266,9.46399974822998 -6.629000186920166,0.4090000092983246 -6.629000186920166,0.4090000092983246 C-10.074000358581543,-1.1510000228881836 -12.390999794006348,-7.954999923706055 -12.390999794006348,-7.954999923706055 C-12.390999794006348,-7.954999923706055 -6.64900016784668,-4.705999851226807 -4.804999828338623,-4.099999904632568z"></path></g><g opacity="1" transform="matrix(1.0877784490585327,0,0,1.0877784490585327,745.6290283203125,241.88900756835938)"><path stroke-linecap="round" stroke-linejoin="round" fill-opacity="0" stroke="rgb(0,0,0)" stroke-opacity="1" stroke-width="2.997" d=" M-5.158999919891357,-2.875 C-5.158999919891357,-2.875 0.2460000067949295,-13.15999984741211 2.2260000705718994,-14.958999633789062 C2.2260000705718994,-14.958999633789062 2.3329999446868896,-2.2090001106262207 2.3329999446868896,-2.2090001106262207 C2.3329999446868896,-2.2090001106262207 7.894999980926514,-2.9170000553131104 12.800000190734863,-0.5839999914169312 C12.800000190734863,-0.5839999914169312 5.126999855041504,2.5299999713897705 4.732999801635742,4.354000091552734 C4.732999801635742,4.354000091552734 8.168000221252441,14.960000038146973 8.168000221252441,14.960000038146973 C8.168000221252441,14.960000038146973 0.08399999886751175,11.145000457763672 -1.6670000553131104,5.99399995803833 C-1.6670000553131104,5.99399995803833 -8.769000053405762,8.673999786376953 -12.128000259399414,10.970999717712402 C-12.128000259399414,10.970999717712402 -6.447999954223633,1.61899995803833 -6.447999954223633,1.61899995803833 C-7.163000106811523,0.5099999904632568 -12.800000190734863,-5.797999858856201 -12.800000190734863,-5.797999858856201 C-12.800000190734863,-5.797999858856201 -6.982999801635742,-3.2690000534057617 -5.158999919891357,-2.875z"></path></g><g opacity="1" transform="matrix(1.3379472494125366,0,0,1.3379472494125366,672.6010131835938,14.005000114440918)"><path fill="rgb(0,221,179)" fill-opacity="1" d=" M-7.8979997634887695,0.3709999918937683 C-7.8979997634887695,0.3709999918937683 -13.793999671936035,-9.763999938964844 -14.270999908447266,-12.42199993133545 C-14.270999908447266,-12.42199993133545 -3.312000036239624,-5.677000045776367 -3.312000036239624,-5.677000045776367 C-3.312000036239624,-5.677000045776367 -0.9350000023841858,-10.812000274658203 3.688999891281128,-13.755000114440918 C3.688999891281128,-13.755000114440918 2.236999988555908,-5.525000095367432 3.5850000381469727,-4.210000038146973 C3.5850000381469727,-4.210000038146973 14.494999885559082,-1.4600000381469727 14.494999885559082,-1.4600000381469727 C14.494999885559082,-1.4600000381469727 7.925000190734863,0.9909999966621399 1.555999994277954,2.1410000324249268 C1.555999994277954,2.1410000324249268 2.687000036239624,8.876999855041504 0.20200000703334808,13.755000114440918 C0.20200000703334808,13.755000114440918 -4.748000144958496,3.882999897003174 -4.748000144958496,3.882999897003174 C-7.578000068664551,6.21999979019165 -14.494999885559082,5.335999965667725 -14.494999885559082,5.335999965667725 C-14.494999885559082,5.335999965667725 -9.213000297546387,1.718999981880188 -7.8979997634887695,0.3709999918937683z"></path></g></g><g clip-path="url(#__lottie_element_434)" transform="matrix(1,0,0,1,-49.84092712402344,-71.21788024902344)" opacity="1" style="display: block;"><g transform="matrix(0.9103119373321533,0.3152180314064026,-0.3402962386608124,0.9827348589897156,845.9879150390625,908.7338256835938)" opacity="1" style="display: block;"><g opacity="1" transform="matrix(1,0,0,1,98.89199829101562,135.94900512695312)"><path fill="rgb(0,0,0)" fill-opacity="1" d=" M22.007999420166016,-113.37300109863281 C44.185001373291016,-97.82499694824219 62.22800064086914,-74.74800109863281 71.9990005493164,-51.7599983215332 C83.67400360107422,-24.292999267578125 98.64199829101562,17.66699981689453 79.85700225830078,41.242000579833984 C63.21699905395508,62.125 58.832000732421875,68.39700317382812 59.08599853515625,84.78199768066406 C59.87699890136719,135.69900512695312 29.496000289916992,91.09700012207031 13.670999526977539,74.58599853515625 C-0.4059999883174896,59.89699935913086 -11.026000022888184,43.474998474121094 -18.163999557495117,24.433000564575195 C-16.14900016784668,36.34700012207031 -10.437999725341797,48.207000732421875 -9.390999794006348,60.18299865722656 C-8.46399974822998,70.77200317382812 -19.552000045776367,65.55000305175781 -25.566999435424805,62.801998138427734 C-31.94300079345703,59.88999938964844 -37.599998474121094,55.50899887084961 -42.698001861572266,50.75 C-52.48500061035156,41.61600112915039 -60.54800033569336,30.632999420166016 -67.61000061035156,19.305999755859375 C-83.66400146484375,-6.441999912261963 -94.91999816894531,-37.43000030517578 -96.52200317382812,-67.89399719238281 C-98.64199829101562,-108.18399810791016 -64.7249984741211,-135.69900512695312 -25.820999145507812,-132.10299682617188 C-8.876999855041504,-130.53700256347656 7.454999923706055,-123.57599639892578 22.007999420166016,-113.37300109863281z"></path></g></g><g transform="matrix(0.9943385720252991,0.10625847429037094,-0.10625847429037094,0.9943385720252991,510.6907653808594,310.35406494140625)" opacity="1" style="display: block;"><g opacity="1" transform="matrix(1,0,0,1,150.61700439453125,359.30999755859375)"><path fill="rgb(0,221,179)" fill-opacity="1" d=" M107.40699768066406,190.197998046875 C107.40699768066406,190.197998046875 107.40699768066406,190.197998046875 107.40699768066406,190.197998046875 C133.4340057373047,176.7050018310547 143.11700439453125,145.55099487304688 129.03399658203125,120.61299896240234 C129.03399658203125,120.61299896240234 -34.78300094604492,-169.4759979248047 -34.78300094604492,-169.4759979248047 C-48.86600112915039,-194.41299438476562 -81.38099670410156,-203.6909942626953 -107.40799713134766,-190.197998046875 C-133.4340057373047,-176.70399475097656 -143.11700439453125,-145.5500030517578 -129.03500366210938,-120.61299896240234 C-129.03500366210938,-120.61299896240234 34.78300094604492,169.4759979248047 34.78300094604492,169.4759979248047 C48.8650016784668,194.41400146484375 81.37999725341797,203.6909942626953 107.40699768066406,190.197998046875z"></path><path stroke-linecap="butt" stroke-linejoin="miter" fill-opacity="0" stroke-miterlimit="10" stroke="rgb(52,52,52)" stroke-opacity="1" stroke-width="3" d=" M107.40699768066406,190.197998046875 C107.40699768066406,190.197998046875 107.40699768066406,190.197998046875 107.40699768066406,190.197998046875 C133.4340057373047,176.7050018310547 143.11700439453125,145.55099487304688 129.03399658203125,120.61299896240234 C129.03399658203125,120.61299896240234 -34.78300094604492,-169.4759979248047 -34.78300094604492,-169.4759979248047 C-48.86600112915039,-194.41299438476562 -81.38099670410156,-203.6909942626953 -107.40799713134766,-190.197998046875 C-133.4340057373047,-176.70399475097656 -143.11700439453125,-145.5500030517578 -129.03500366210938,-120.61299896240234 C-129.03500366210938,-120.61299896240234 34.78300094604492,169.4759979248047 34.78300094604492,169.4759979248047 C48.8650016784668,194.41400146484375 81.37999725341797,203.6909942626953 107.40699768066406,190.197998046875z"></path></g><g opacity="1" transform="matrix(1,0,0,1,474.89599609375,221.75399780273438)"><path fill="rgb(0,221,179)" fill-opacity="1" d=" M71.55000305175781,205.36099243164062 C71.55000305175781,205.36099243164062 71.55000305175781,205.36099243164062 71.55000305175781,205.36099243164062 C99.61399841308594,196.46800231933594 114.75800323486328,167.43099975585938 105.37699890136719,140.50599670410156 C105.37699890136719,140.50599670410156 -3.749000072479248,-172.7100067138672 -3.749000072479248,-172.7100067138672 C-13.130000114440918,-199.63600158691406 -43.48500061035156,-214.25399780273438 -71.54900360107422,-205.36099243164062 C-99.61299896240234,-196.46800231933594 -114.75800323486328,-167.42999267578125 -105.37699890136719,-140.5050048828125 C-105.37699890136719,-140.5050048828125 3.749000072479248,172.7100067138672 3.749000072479248,172.7100067138672 C13.130000114440918,199.63600158691406 43.486000061035156,214.25399780273438 71.55000305175781,205.36099243164062z"></path><path stroke-linecap="butt" stroke-linejoin="miter" fill-opacity="0" stroke-miterlimit="10" stroke="rgb(52,52,52)" stroke-opacity="1" stroke-width="3" d=" M71.55000305175781,205.36099243164062 C71.55000305175781,205.36099243164062 71.55000305175781,205.36099243164062 71.55000305175781,205.36099243164062 C99.61399841308594,196.46800231933594 114.75800323486328,167.43099975585938 105.37699890136719,140.50599670410156 C105.37699890136719,140.50599670410156 -3.749000072479248,-172.7100067138672 -3.749000072479248,-172.7100067138672 C-13.130000114440918,-199.63600158691406 -43.48500061035156,-214.25399780273438 -71.54900360107422,-205.36099243164062 C-99.61299896240234,-196.46800231933594 -114.75800323486328,-167.42999267578125 -105.37699890136719,-140.5050048828125 C-105.37699890136719,-140.5050048828125 3.749000072479248,172.7100067138672 3.749000072479248,172.7100067138672 C13.130000114440918,199.63600158691406 43.486000061035156,214.25399780273438 71.55000305175781,205.36099243164062z"></path></g></g><g transform="matrix(0.9943385720252991,0.10625847429037094,-0.10625847429037094,0.9943385720252991,467.4224853515625,635.3004150390625)" opacity="1" style="display: block;"><g opacity="1" transform="matrix(1,0,0,1,71.08399963378906,76.88700103759766)"><path fill="rgb(0,0,0)" fill-opacity="1" d=" M-51.18600082397461,23.82699966430664 C-38.80799865722656,6.239999771118164 28.94499969482422,-76.63700103759766 54.849998474121094,-61.33700180053711 C70.83399963378906,-51.89699935913086 7.765999794006348,24.246999740600586 -14.918999671936035,50.084999084472656 C-20.391000747680664,56.31800079345703 -43.86600112915039,76.63700103759766 -56.02799987792969,67.23600006103516 C-70.83399963378906,55.79100036621094 -60.69300079345703,37.33399963378906 -51.18600082397461,23.82699966430664z"></path></g></g><g transform="matrix(0.9936700463294983,0.11233837902545929,-0.11233837902545929,0.9936700463294983,971.1061401367188,448.3133850097656)" opacity="1" style="display: block;"><g opacity="1" transform="matrix(1,0,0,1,81.0270004272461,49.74700164794922)"><path fill="rgb(0,0,0)" fill-opacity="1" d=" M-51.49300003051758,2.3529999256134033 C-34.07400131225586,-7.38700008392334 55.862998962402344,-49.49700164794922 71.27100372314453,-26.270999908447266 C80.77799987792969,-11.9399995803833 -2.5360000133514404,26.41900062561035 -31.87700080871582,38.91899871826172 C-38.95500183105469,41.933998107910156 -66.7239990234375,49.49700164794922 -73.06199645996094,36.73699951171875 C-80.77799987792969,21.20199966430664 -64.87100219726562,9.833999633789062 -51.49300003051758,2.3529999256134033z"></path></g></g><g transform="matrix(0.994499921798706,0.10473787039518356,-0.10473787039518356,0.994499921798706,970.7827758789062,449.3435363769531)" opacity="1" style="display: block;"><g opacity="1" transform="matrix(1,0,0,1,127.46099853515625,103.43599700927734)"><path fill="rgb(0,0,0)" fill-opacity="1" d=" M-6.206999778747559,-75.55899810791016 C-6.206999778747559,-75.55899810791016 -25.34600067138672,70.69499969482422 -25.34600067138672,70.69499969482422 C-25.34600067138672,70.69499969482422 -9.98799991607666,76.01599884033203 -9.98799991607666,76.01599884033203 C-9.98799991607666,76.01599884033203 25.34600067138672,-76.01599884033203 25.34600067138672,-76.01599884033203 C25.34600067138672,-76.01599884033203 -6.206999778747559,-75.55899810791016 -6.206999778747559,-75.55899810791016z"></path></g><g opacity="1" transform="matrix(1,0,0,1,131.822998046875,186.968994140625)"><path fill="rgb(0,0,0)" fill-opacity="1" d=" M-23.583999633789062,12.550000190734863 C-22.145999908447266,18.035999298095703 -19.993999481201172,24.413999557495117 -12.494000434875488,23.86199951171875 C-10.934000015258789,23.746999740600586 -9.413999557495117,23.302000045776367 -7.980000019073486,22.679000854492188 C2.615000009536743,18.079999923706055 12.586999893188477,12.067000389099121 21.634000778198242,4.888000011444092 C32.43899917602539,-3.687000036239624 26.781999588012695,-21.115999221801758 13.008999824523926,-21.875999450683594 C13.008999824523926,-21.875999450683594 -6.340000152587891,-22.94499969482422 -6.340000152587891,-22.94499969482422 C-13.215999603271484,-23.325000762939453 -25.951000213623047,-24.413000106811523 -29.301000595092773,-16.43199920654297 C-32.43899917602539,-8.954000473022461 -25.527999877929688,5.136000156402588 -23.583999633789062,12.550000190734863z"></path></g></g><g transform="matrix(0.9943385720252991,0.10625847429037094,-0.10625847429037094,0.9943385720252991,553.5225219726562,220.3349609375)" opacity="1" style="display: block;"><g opacity="1" transform="matrix(1,0,0,1,321.1289978027344,395.8059997558594)"><path fill="rgb(255,254,255)" fill-opacity="1" d=" M-201.7010040283203,306.65899658203125 C-223.64614868164062,285.6122131347656 -236.7310028076172,256.9830017089844 -240.1820068359375,226.77200317382812 C-251.4290008544922,128.29200744628906 -313.6289978027344,-257.0769958496094 -199.86500549316406,-317.66400146484375 C-67.2229995727539,-388.30499267578125 234.6531219482422,-73.04535675048828 273.97698974609375,68.83300018310547 C310.7203674316406,201.3520050048828 130.1973114013672,273.749267578125 75.6323013305664,292.84228515625 C28.863304138183594,309.2082824707031 -136.88954162597656,368.9944763183594 -201.7010040283203,306.65899658203125z"></path><path stroke-linecap="round" stroke-linejoin="round" fill-opacity="0" stroke="rgb(52,52,52)" stroke-opacity="1" stroke-width="3" d=" M-201.7010040283203,306.65899658203125 C-223.64614868164062,285.6122131347656 -236.7310028076172,256.9830017089844 -240.1820068359375,226.77200317382812 C-251.4290008544922,128.29200744628906 -313.6289978027344,-257.0769958496094 -199.86500549316406,-317.66400146484375 C-67.2229995727539,-388.30499267578125 234.6531219482422,-73.04535675048828 273.97698974609375,68.83300018310547 C310.7203674316406,201.3520050048828 130.1973114013672,273.749267578125 75.6323013305664,292.84228515625 C28.863304138183594,309.2082824707031 -136.88954162597656,368.9944763183594 -201.7010040283203,306.65899658203125z"></path></g><g opacity="1" transform="matrix(1,0,0,1,357.8399963378906,611.1949462890625)"><path stroke-linecap="round" stroke-linejoin="round" fill-opacity="0" stroke="rgb(52,52,52)" stroke-opacity="1" stroke-width="3" d=" M-197.21087646484375,104.97891235351562 C-225.66734313964844,66.35074615478516 -138.63710021972656,-15.503366470336914 -18.61381721496582,-58.451812744140625 C101.40946960449219,-101.4006118774414 217.71121215820312,-110.1732406616211 227.5153045654297,-59.749664306640625"></path></g></g><g transform="matrix(0.9978567957878113,0.06543620675802231,-0.06543620675802231,0.9978567957878113,911.9537963867188,823.7879638671875)" opacity="1" style="display: block;"><g opacity="1" transform="matrix(1,0,0,1,80.9219970703125,122.62899780273438)"><path fill="rgb(0,0,0)" fill-opacity="1" d=" M64.71600341796875,111.76499938964844 C64.71600341796875,111.76499938964844 64.71600341796875,111.76499938964844 64.71600341796875,111.76499938964844 C58.29199981689453,115.12899780273438 50.358001708984375,112.6500015258789 46.99300003051758,106.22599792480469 C46.99300003051758,106.22599792480469 -67.68299865722656,-78.88500213623047 -67.68299865722656,-78.88500213623047 C-73.4219970703125,-89.84100341796875 -69.19200134277344,-103.3740005493164 -58.236000061035156,-109.11199951171875 C-46.74800109863281,-115.12899780273438 -32.56700134277344,-110.16000366210938 -27.347000122070312,-98.28800201416016 C-27.347000122070312,-98.28800201416016 70.64299774169922,94.8489990234375 70.64299774169922,94.8489990234375 C73.4219970703125,101.16899871826172 70.83200073242188,108.56199645996094 64.71600341796875,111.76499938964844z"></path><path stroke-linecap="round" stroke-linejoin="round" fill-opacity="0" stroke="rgb(0,0,0)" stroke-opacity="1" stroke-width="3" d=" M64.71600341796875,111.76499938964844 C64.71600341796875,111.76499938964844 64.71600341796875,111.76499938964844 64.71600341796875,111.76499938964844 C58.29199981689453,115.12899780273438 50.358001708984375,112.6500015258789 46.99300003051758,106.22599792480469 C46.99300003051758,106.22599792480469 -67.68299865722656,-78.88500213623047 -67.68299865722656,-78.88500213623047 C-73.4219970703125,-89.84100341796875 -69.19200134277344,-103.3740005493164 -58.236000061035156,-109.11199951171875 C-46.74800109863281,-115.12899780273438 -32.56700134277344,-110.16000366210938 -27.347000122070312,-98.28800201416016 C-27.347000122070312,-98.28800201416016 70.64299774169922,94.8489990234375 70.64299774169922,94.8489990234375 C73.4219970703125,101.16899871826172 70.83200073242188,108.56199645996094 64.71600341796875,111.76499938964844z"></path></g><g opacity="1" transform="matrix(0.847396194934845,0.028919976204633713,-0.03410818800330162,0.9994181394577026,148.68589782714844,207.38063049316406)"><path fill="rgb(0,0,0)" fill-opacity="1" d=" M18.858999252319336,-27.22800064086914 C28.256999969482422,-20.718000411987305 27.433000564575195,-3.250999927520752 17.01799964904785,11.78600025177002 C6.6020002365112305,26.823999404907227 -9.460000038146973,33.737998962402344 -18.857999801635742,27.229000091552734 C-28.256999969482422,20.7189998626709 -27.43199920654297,3.250999927520752 -17.017000198364258,-11.786999702453613 C-6.6020002365112305,-26.823999404907227 9.461000442504883,-33.737998962402344 18.858999252319336,-27.22800064086914z"></path><path stroke-linecap="round" stroke-linejoin="round" fill-opacity="0" stroke="rgb(0,0,0)" stroke-opacity="1" stroke-width="3" d=" M18.858999252319336,-27.22800064086914 C28.256999969482422,-20.718000411987305 27.433000564575195,-3.250999927520752 17.01799964904785,11.78600025177002 C6.6020002365112305,26.823999404907227 -9.460000038146973,33.737998962402344 -18.857999801635742,27.229000091552734 C-28.256999969482422,20.7189998626709 -27.43199920654297,3.250999927520752 -17.017000198364258,-11.786999702453613 C-6.6020002365112305,-26.823999404907227 9.461000442504883,-33.737998962402344 18.858999252319336,-27.22800064086914z"></path></g></g><g transform="matrix(0.9904138445854187,0.13813216984272003,-0.13813216984272003,0.9904138445854187,740.1564331054688,877.157958984375)" opacity="1" style="display: block;"><g opacity="1" transform="matrix(1,0,0,1,54.29600143432617,131.48599243164062)"><path fill="rgb(0,0,0)" fill-opacity="1" d=" M36.03300094604492,122.06700134277344 C36.03300094604492,122.06700134277344 36.03300094604492,122.06700134277344 36.03300094604492,122.06700134277344 C29.040000915527344,123.98600006103516 21.81599998474121,119.87300109863281 19.89699935913086,112.87999725341797 C19.89699935913086,112.87999725341797 -43.52299880981445,-93.03299713134766 -43.52299880981445,-93.03299713134766 C-46.79600143432617,-104.95899963378906 -39.78099822998047,-117.28099822998047 -27.854999542236328,-120.55400085449219 C-15.347999572753906,-123.98600006103516 -2.5510001182556152,-116.11000061035156 0.019999999552965164,-103.39900207519531 C0.019999999552965164,-103.39900207519531 45.426998138427734,106.802001953125 45.426998138427734,106.802001953125 C46.79600143432617,113.56900024414062 42.691001892089844,120.23999786376953 36.03300094604492,122.06700134277344z"></path><path stroke-linecap="round" stroke-linejoin="round" fill-opacity="0" stroke="rgb(0,0,0)" stroke-opacity="1" stroke-width="3" d=" M36.03300094604492,122.06700134277344 C36.03300094604492,122.06700134277344 36.03300094604492,122.06700134277344 36.03300094604492,122.06700134277344 C29.040000915527344,123.98600006103516 21.81599998474121,119.87300109863281 19.89699935913086,112.87999725341797 C19.89699935913086,112.87999725341797 -43.52299880981445,-93.03299713134766 -43.52299880981445,-93.03299713134766 C-46.79600143432617,-104.95899963378906 -39.78099822998047,-117.28099822998047 -27.854999542236328,-120.55400085449219 C-15.347999572753906,-123.98600006103516 -2.5510001182556152,-116.11000061035156 0.019999999552965164,-103.39900207519531 C0.019999999552965164,-103.39900207519531 45.426998138427734,106.802001953125 45.426998138427734,106.802001953125 C46.79600143432617,113.56900024414062 42.691001892089844,120.23999786376953 36.03300094604492,122.06700134277344z"></path></g><g opacity="1" transform="matrix(0.8469974994659424,-0.03888354450464249,0.045859210193157196,0.9989479184150696,70.385498046875,231.04434204101562)"><path fill="rgb(0,0,0)" fill-opacity="1" d=" M-26.68899917602539,-19.613000869750977 C-19.91900062561035,-28.826000213623047 -2.4820001125335693,-27.51300048828125 12.258999824523926,-16.680999755859375 C26.999000549316406,-5.848999977111816 33.45899963378906,10.399999618530273 26.68899917602539,19.613000869750977 C19.91900062561035,28.826000213623047 2.4820001125335693,27.51300048828125 -12.258999824523926,16.680999755859375 C-26.999000549316406,5.848999977111816 -33.45899963378906,-10.399999618530273 -26.68899917602539,-19.613000869750977z"></path><path stroke-linecap="round" stroke-linejoin="round" fill-opacity="0" stroke="rgb(0,0,0)" stroke-opacity="1" stroke-width="3" d=" M-26.68899917602539,-19.613000869750977 C-19.91900062561035,-28.826000213623047 -2.4820001125335693,-27.51300048828125 12.258999824523926,-16.680999755859375 C26.999000549316406,-5.848999977111816 33.45899963378906,10.399999618530273 26.68899917602539,19.613000869750977 C19.91900062561035,28.826000213623047 2.4820001125335693,27.51300048828125 -12.258999824523926,16.680999755859375 C-26.999000549316406,5.848999977111816 -33.45899963378906,-10.399999618530273 -26.68899917602539,-19.613000869750977z"></path></g></g><g mask="url(#__lottie_element_486_1)" style="display: block;"><g transform="matrix(0.9943385720252991,0.10625847429037094,-0.10625847429037094,0.9943385720252991,595.0638427734375,255.1016082763672)" opacity="1"><g opacity="1" transform="matrix(1,0,0,1,157.27000427246094,132.1510009765625)"><path fill="rgb(0,0,0)" fill-opacity="1" d=" M-175.72300720214844,145.0970001220703 C-175.72300720214844,145.0970001220703 -44.58100128173828,-42.74399948120117 186.08700561523438,-7.150000095367432 C186.08700561523438,-7.150000095367432 76.05500030517578,-211.31300354003906 -106.43000030517578,-135.65899658203125 C-245.8489990234375,-77.85900115966797 -175.72300720214844,145.0970001220703 -175.72300720214844,145.0970001220703z"></path></g></g></g><g transform="matrix(0.9943385720252991,0.10625847429037094,-0.10625847429037094,0.9943385720252991,863.8798217773438,572.609130859375)" opacity="1" style="display: block;"><g opacity="1" transform="matrix(1,0,0,1,35.55099868774414,25.368000030517578)"><path fill="rgb(0,221,179)" fill-opacity="1" d=" M22.30900001525879,12.779999732971191 C22.30900001525879,12.779999732971191 -1.2910000085830688,17.100000381469727 -1.2910000085830688,17.100000381469727 C-5.479000091552734,17.867000579833984 -10.715999603271484,15.871000289916992 -12.987000465393066,12.642999649047852 C-12.987000465393066,12.642999649047852 -25.7810001373291,-5.546999931335449 -25.7810001373291,-5.546999931335449 C-28.052000045776367,-8.776000022888184 -26.496999740600586,-12.015000343322754 -22.308000564575195,-12.781000137329102 C-22.308000564575195,-12.781000137329102 1.2910000085830688,-17.101999282836914 1.2910000085830688,-17.101999282836914 C5.479000091552734,-17.868000030517578 10.71500015258789,-15.871999740600586 12.984999656677246,-12.642999649047852 C12.984999656677246,-12.642999649047852 25.7810001373291,5.546999931335449 25.7810001373291,5.546999931335449 C28.052000045776367,8.774999618530273 26.49799919128418,12.012999534606934 22.30900001525879,12.779999732971191z"></path><path stroke-linecap="butt" stroke-linejoin="miter" fill-opacity="0" stroke-miterlimit="10" stroke="rgb(52,52,52)" stroke-opacity="1" stroke-width="3" d=" M22.30900001525879,12.779999732971191 C22.30900001525879,12.779999732971191 -1.2910000085830688,17.100000381469727 -1.2910000085830688,17.100000381469727 C-5.479000091552734,17.867000579833984 -10.715999603271484,15.871000289916992 -12.987000465393066,12.642999649047852 C-12.987000465393066,12.642999649047852 -25.7810001373291,-5.546999931335449 -25.7810001373291,-5.546999931335449 C-28.052000045776367,-8.776000022888184 -26.496999740600586,-12.015000343322754 -22.308000564575195,-12.781000137329102 C-22.308000564575195,-12.781000137329102 1.2910000085830688,-17.101999282836914 1.2910000085830688,-17.101999282836914 C5.479000091552734,-17.868000030517578 10.71500015258789,-15.871999740600586 12.984999656677246,-12.642999649047852 C12.984999656677246,-12.642999649047852 25.7810001373291,5.546999931335449 25.7810001373291,5.546999931335449 C28.052000045776367,8.774999618530273 26.49799919128418,12.012999534606934 22.30900001525879,12.779999732971191z"></path></g><g opacity="1" transform="matrix(1,0,0,1,35.54899978637695,25.408000946044922)"><path fill="rgb(52,52,52)" fill-opacity="1" d=" M4.206999778747559,-12.041999816894531 C5.4710001945495605,-12.119000434875488 6.863999843597412,-11.425000190734863 7.322000026702881,-10.491999626159668 C7.7789998054504395,-9.557999610900879 7.125999927520752,-8.73799991607666 5.861999988555908,-8.66100025177002 C3.624000072479248,-8.52400016784668 2.255000114440918,-5.478000164031982 2.3480000495910645,0.25999999046325684 C2.4660000801086426,7.585000038146973 0.5049999952316284,11.437999725341797 -4.01800012588501,11.973999977111816 C-5.244999885559082,12.119000434875488 -6.684000015258789,11.486000061035156 -7.23199987411499,10.560999870300293 C-7.78000020980835,9.635000228881836 -7.230999946594238,8.767000198364258 -6.004000186920166,8.621000289916992 C-3.7699999809265137,8.357000350952148 -2.424999952316284,5.197000026702881 -2.5190000534057617,-0.5920000076293945 C-2.638000011444092,-7.964000225067139 -0.5659999847412109,-11.75 4.206999778747559,-12.041999816894531z"></path></g></g><g transform="matrix(0.9943385720252991,0.10625847429037094,-0.10625847429037094,0.9943385720252991,649.512451171875,444.64532470703125)" opacity="1" style="display: block;"><g opacity="1" transform="matrix(1,0,0,1,133.62100219726562,108.02100372314453)"><path fill="rgb(255,254,255)" fill-opacity="1" d=" M124.20700073242188,-8.789999961853027 C33.595001220703125,-9.656000137329102 -40.99800109863281,29.339000701904297 -103.01699829101562,99.62100219726562 C-103.81199645996094,100.52200317382812 -105.29199981689453,100.11399841308594 -105.50199890136719,98.93099975585938 C-105.50199890136719,98.93099975585938 -126.04299926757812,-16.930999755859375 -126.04299926757812,-16.930999755859375 C-126.12200164794922,-17.375 -125.98799896240234,-17.832000732421875 -125.68199920654297,-18.163000106811523 C-79.35800170898438,-68.36699676513672 -21.5049991607666,-95.41600036621094 47.28900146484375,-100.48799896240234 C47.74399948120117,-100.52100372314453 48.189998626708984,-100.33799743652344 48.487998962402344,-99.99299621582031 C48.487998962402344,-99.99299621582031 125.31199645996094,-11.154999732971191 125.31199645996094,-11.154999732971191 C126.12100219726562,-10.220000267028809 125.44400024414062,-8.777999877929688 124.20700073242188,-8.789999961853027z"></path><path stroke-linecap="butt" stroke-linejoin="miter" fill-opacity="0" stroke-miterlimit="10" stroke="rgb(52,52,52)" stroke-opacity="1" stroke-width="3" d=" M124.20700073242188,-8.789999961853027 C33.595001220703125,-9.656000137329102 -40.99800109863281,29.339000701904297 -103.01699829101562,99.62100219726562 C-103.81199645996094,100.52200317382812 -105.29199981689453,100.11399841308594 -105.50199890136719,98.93099975585938 C-105.50199890136719,98.93099975585938 -126.04299926757812,-16.930999755859375 -126.04299926757812,-16.930999755859375 C-126.12200164794922,-17.375 -125.98799896240234,-17.832000732421875 -125.68199920654297,-18.163000106811523 C-79.35800170898438,-68.36699676513672 -21.5049991607666,-95.41600036621094 47.28900146484375,-100.48799896240234 C47.74399948120117,-100.52100372314453 48.189998626708984,-100.33799743652344 48.487998962402344,-99.99299621582031 C48.487998962402344,-99.99299621582031 125.31199645996094,-11.154999732971191 125.31199645996094,-11.154999732971191 C126.12100219726562,-10.220000267028809 125.44400024414062,-8.777999877929688 124.20700073242188,-8.789999961853027z"></path></g><g opacity="1" transform="matrix(1,0,0,1,174.41900634765625,52.742000579833984)"><path fill="rgb(52,52,52)" fill-opacity="1" d=" M7.0370001792907715,-4.921999931335449 C10.644000053405762,0.23499999940395355 10.418000221252441,6.61899995803833 6.5320000648498535,9.336999893188477 C2.6459999084472656,12.055000305175781 -3.430000066757202,10.079000473022461 -7.0370001792907715,4.922999858856201 C-10.644000053405762,-0.23399999737739563 -10.418000221252441,-6.618000030517578 -6.5320000648498535,-9.336000442504883 C-2.6459999084472656,-12.055000305175781 3.430000066757202,-10.079000473022461 7.0370001792907715,-4.921999931335449z"></path></g><g opacity="1" transform="matrix(1,0,0,1,55.45000076293945,104.98300170898438)"><path fill="rgb(52,52,52)" fill-opacity="1" d=" M13.237000465393066,-6.683000087738037 C8.644000053405762,-10.385000228881836 0.37400001287460327,-8.404999732971191 -3.803999900817871,-6.159999847412109 C-7.98199987411499,-3.9149999618530273 -13.307000160217285,4.295000076293945 -12.119999885559082,8.663000106811523 C-10.470000267028809,14.736000061035156 -9.140000343322754,1.6009999513626099 -2.0820000171661377,-2.49399995803833 C5.671999931335449,-6.993000030517578 18.136999130249023,-2.7339999675750732 13.237000465393066,-6.683000087738037z"></path></g><g opacity="1" transform="matrix(1,0,0,1,123.61399841308594,100.73799896240234)"><path stroke-linecap="butt" stroke-linejoin="miter" fill-opacity="0" stroke-miterlimit="10" stroke="rgb(52,52,52)" stroke-opacity="1" stroke-width="3" d=" M4.76200008392334,-2.072000026702881 C6.263000011444092,1.3769999742507935 5.3470001220703125,5.099999904632568 2.7170000076293945,6.244999885559082 C0.08699999749660492,7.388999938964844 -3.260999917984009,5.520999908447266 -4.76200008392334,2.072000026702881 C-6.263000011444092,-1.3769999742507935 -5.3470001220703125,-5.099999904632568 -2.7170000076293945,-6.24399995803833 C-0.08699999749660492,-7.388999938964844 3.260999917984009,-5.520999908447266 4.76200008392334,-2.072000026702881z"></path></g><g opacity="0" transform="matrix(1,0,0,1,0,0)"><path stroke-linecap="round" stroke-linejoin="miter" fill-opacity="0" stroke-miterlimit="4" stroke="rgb(52,52,52)" stroke-opacity="1" stroke-width="5" d=" M44.25299835205078,102.75499725341797 C44.25299835205078,102.75499725341797 47.70199966430664,117.875 59.35900115966797,111.0250015258789 C70.44200134277344,104.51200103759766 62.72700119018555,95.5989990234375 62.72700119018555,95.5989990234375"></path></g></g><g transform="matrix(0.9980675578117371,0.06213882192969322,-0.06213882192969322,0.9980675578117371,467.8395690917969,767.8660278320312)" opacity="1" style="display: block;"><g opacity="1" transform="matrix(1,0,0,1,75.8489990234375,49.30799865722656)"><path fill="rgb(0,0,0)" fill-opacity="1" d=" M75.5989990234375,24.655000686645508 C75.5989990234375,24.655000686645508 -42.06100082397461,-49.05699920654297 -42.06100082397461,-49.05699920654297 C-42.06100082397461,-49.05699920654297 -75.5989990234375,-36.06999969482422 -75.5989990234375,-36.06999969482422 C-75.5989990234375,-36.06999969482422 74.74600219726562,49.05699920654297 74.74600219726562,49.05699920654297 C74.74600219726562,49.05699920654297 75.5989990234375,24.655000686645508 75.5989990234375,24.655000686645508z"></path></g></g></g><g mask="url(#__lottie_element_441_1)" style="display: block;"><g clip-path="url(#__lottie_element_438)" transform="matrix(1.600000023841858,0,0,1.600000023841858,-617.8409423828125,-420.41796875)" opacity="1"><g transform="matrix(0.9103119373321533,0.3152180314064026,-0.3402962386608124,0.9827348589897156,845.9879150390625,908.7338256835938)" opacity="1" style="display: block;"><g opacity="1" transform="matrix(1,0,0,1,98.89199829101562,135.94900512695312)"><path fill="rgb(0,0,0)" fill-opacity="1" d=" M22.007999420166016,-113.37300109863281 C44.185001373291016,-97.82499694824219 62.22800064086914,-74.74800109863281 71.9990005493164,-51.7599983215332 C83.67400360107422,-24.292999267578125 98.64199829101562,17.66699981689453 79.85700225830078,41.242000579833984 C63.21699905395508,62.125 58.832000732421875,68.39700317382812 59.08599853515625,84.78199768066406 C59.87699890136719,135.69900512695312 29.496000289916992,91.09700012207031 13.670999526977539,74.58599853515625 C-0.4059999883174896,59.89699935913086 -11.026000022888184,43.474998474121094 -18.163999557495117,24.433000564575195 C-16.14900016784668,36.34700012207031 -10.437999725341797,48.207000732421875 -9.390999794006348,60.18299865722656 C-8.46399974822998,70.77200317382812 -19.552000045776367,65.55000305175781 -25.566999435424805,62.801998138427734 C-31.94300079345703,59.88999938964844 -37.599998474121094,55.50899887084961 -42.698001861572266,50.75 C-52.48500061035156,41.61600112915039 -60.54800033569336,30.632999420166016 -67.61000061035156,19.305999755859375 C-83.66400146484375,-6.441999912261963 -94.91999816894531,-37.43000030517578 -96.52200317382812,-67.89399719238281 C-98.64199829101562,-108.18399810791016 -64.7249984741211,-135.69900512695312 -25.820999145507812,-132.10299682617188 C-8.876999855041504,-130.53700256347656 7.454999923706055,-123.57599639892578 22.007999420166016,-113.37300109863281z"></path></g></g><g transform="matrix(0.9943385720252991,0.10625847429037094,-0.10625847429037094,0.9943385720252991,510.6907653808594,310.35406494140625)" opacity="1" style="display: block;"><g opacity="1" transform="matrix(1,0,0,1,150.61700439453125,359.30999755859375)"><path fill="rgb(0,221,179)" fill-opacity="1" d=" M107.40699768066406,190.197998046875 C107.40699768066406,190.197998046875 107.40699768066406,190.197998046875 107.40699768066406,190.197998046875 C133.4340057373047,176.7050018310547 143.11700439453125,145.55099487304688 129.03399658203125,120.61299896240234 C129.03399658203125,120.61299896240234 -34.78300094604492,-169.4759979248047 -34.78300094604492,-169.4759979248047 C-48.86600112915039,-194.41299438476562 -81.38099670410156,-203.6909942626953 -107.40799713134766,-190.197998046875 C-133.4340057373047,-176.70399475097656 -143.11700439453125,-145.5500030517578 -129.03500366210938,-120.61299896240234 C-129.03500366210938,-120.61299896240234 34.78300094604492,169.4759979248047 34.78300094604492,169.4759979248047 C48.8650016784668,194.41400146484375 81.37999725341797,203.6909942626953 107.40699768066406,190.197998046875z"></path><path stroke-linecap="butt" stroke-linejoin="miter" fill-opacity="0" stroke-miterlimit="10" stroke="rgb(52,52,52)" stroke-opacity="1" stroke-width="3" d=" M107.40699768066406,190.197998046875 C107.40699768066406,190.197998046875 107.40699768066406,190.197998046875 107.40699768066406,190.197998046875 C133.4340057373047,176.7050018310547 143.11700439453125,145.55099487304688 129.03399658203125,120.61299896240234 C129.03399658203125,120.61299896240234 -34.78300094604492,-169.4759979248047 -34.78300094604492,-169.4759979248047 C-48.86600112915039,-194.41299438476562 -81.38099670410156,-203.6909942626953 -107.40799713134766,-190.197998046875 C-133.4340057373047,-176.70399475097656 -143.11700439453125,-145.5500030517578 -129.03500366210938,-120.61299896240234 C-129.03500366210938,-120.61299896240234 34.78300094604492,169.4759979248047 34.78300094604492,169.4759979248047 C48.8650016784668,194.41400146484375 81.37999725341797,203.6909942626953 107.40699768066406,190.197998046875z"></path></g><g opacity="1" transform="matrix(1,0,0,1,474.89599609375,221.75399780273438)"><path fill="rgb(0,221,179)" fill-opacity="1" d=" M71.55000305175781,205.36099243164062 C71.55000305175781,205.36099243164062 71.55000305175781,205.36099243164062 71.55000305175781,205.36099243164062 C99.61399841308594,196.46800231933594 114.75800323486328,167.43099975585938 105.37699890136719,140.50599670410156 C105.37699890136719,140.50599670410156 -3.749000072479248,-172.7100067138672 -3.749000072479248,-172.7100067138672 C-13.130000114440918,-199.63600158691406 -43.48500061035156,-214.25399780273438 -71.54900360107422,-205.36099243164062 C-99.61299896240234,-196.46800231933594 -114.75800323486328,-167.42999267578125 -105.37699890136719,-140.5050048828125 C-105.37699890136719,-140.5050048828125 3.749000072479248,172.7100067138672 3.749000072479248,172.7100067138672 C13.130000114440918,199.63600158691406 43.486000061035156,214.25399780273438 71.55000305175781,205.36099243164062z"></path><path stroke-linecap="butt" stroke-linejoin="miter" fill-opacity="0" stroke-miterlimit="10" stroke="rgb(52,52,52)" stroke-opacity="1" stroke-width="3" d=" M71.55000305175781,205.36099243164062 C71.55000305175781,205.36099243164062 71.55000305175781,205.36099243164062 71.55000305175781,205.36099243164062 C99.61399841308594,196.46800231933594 114.75800323486328,167.43099975585938 105.37699890136719,140.50599670410156 C105.37699890136719,140.50599670410156 -3.749000072479248,-172.7100067138672 -3.749000072479248,-172.7100067138672 C-13.130000114440918,-199.63600158691406 -43.48500061035156,-214.25399780273438 -71.54900360107422,-205.36099243164062 C-99.61299896240234,-196.46800231933594 -114.75800323486328,-167.42999267578125 -105.37699890136719,-140.5050048828125 C-105.37699890136719,-140.5050048828125 3.749000072479248,172.7100067138672 3.749000072479248,172.7100067138672 C13.130000114440918,199.63600158691406 43.486000061035156,214.25399780273438 71.55000305175781,205.36099243164062z"></path></g></g><g transform="matrix(0.9943385720252991,0.10625847429037094,-0.10625847429037094,0.9943385720252991,467.4224853515625,635.3004150390625)" opacity="1" style="display: block;"><g opacity="1" transform="matrix(1,0,0,1,71.08399963378906,76.88700103759766)"><path fill="rgb(0,0,0)" fill-opacity="1" d=" M-51.18600082397461,23.82699966430664 C-38.80799865722656,6.239999771118164 28.94499969482422,-76.63700103759766 54.849998474121094,-61.33700180053711 C70.83399963378906,-51.89699935913086 7.765999794006348,24.246999740600586 -14.918999671936035,50.084999084472656 C-20.391000747680664,56.31800079345703 -43.86600112915039,76.63700103759766 -56.02799987792969,67.23600006103516 C-70.83399963378906,55.79100036621094 -60.69300079345703,37.33399963378906 -51.18600082397461,23.82699966430664z"></path></g></g><g transform="matrix(0.9936700463294983,0.11233837902545929,-0.11233837902545929,0.9936700463294983,971.1061401367188,448.3133850097656)" opacity="1" style="display: block;"><g opacity="1" transform="matrix(1,0,0,1,81.0270004272461,49.74700164794922)"><path fill="rgb(0,0,0)" fill-opacity="1" d=" M-51.49300003051758,2.3529999256134033 C-34.07400131225586,-7.38700008392334 55.862998962402344,-49.49700164794922 71.27100372314453,-26.270999908447266 C80.77799987792969,-11.9399995803833 -2.5360000133514404,26.41900062561035 -31.87700080871582,38.91899871826172 C-38.95500183105469,41.933998107910156 -66.7239990234375,49.49700164794922 -73.06199645996094,36.73699951171875 C-80.77799987792969,21.20199966430664 -64.87100219726562,9.833999633789062 -51.49300003051758,2.3529999256134033z"></path></g></g><g transform="matrix(0.994499921798706,0.10473787039518356,-0.10473787039518356,0.994499921798706,970.7827758789062,449.3435363769531)" opacity="1" style="display: block;"><g opacity="1" transform="matrix(1,0,0,1,127.46099853515625,103.43599700927734)"><path fill="rgb(0,0,0)" fill-opacity="1" d=" M-6.206999778747559,-75.55899810791016 C-6.206999778747559,-75.55899810791016 -25.34600067138672,70.69499969482422 -25.34600067138672,70.69499969482422 C-25.34600067138672,70.69499969482422 -9.98799991607666,76.01599884033203 -9.98799991607666,76.01599884033203 C-9.98799991607666,76.01599884033203 25.34600067138672,-76.01599884033203 25.34600067138672,-76.01599884033203 C25.34600067138672,-76.01599884033203 -6.206999778747559,-75.55899810791016 -6.206999778747559,-75.55899810791016z"></path></g><g opacity="1" transform="matrix(1,0,0,1,131.822998046875,186.968994140625)"><path fill="rgb(0,0,0)" fill-opacity="1" d=" M-23.583999633789062,12.550000190734863 C-22.145999908447266,18.035999298095703 -19.993999481201172,24.413999557495117 -12.494000434875488,23.86199951171875 C-10.934000015258789,23.746999740600586 -9.413999557495117,23.302000045776367 -7.980000019073486,22.679000854492188 C2.615000009536743,18.079999923706055 12.586999893188477,12.067000389099121 21.634000778198242,4.888000011444092 C32.43899917602539,-3.687000036239624 26.781999588012695,-21.115999221801758 13.008999824523926,-21.875999450683594 C13.008999824523926,-21.875999450683594 -6.340000152587891,-22.94499969482422 -6.340000152587891,-22.94499969482422 C-13.215999603271484,-23.325000762939453 -25.951000213623047,-24.413000106811523 -29.301000595092773,-16.43199920654297 C-32.43899917602539,-8.954000473022461 -25.527999877929688,5.136000156402588 -23.583999633789062,12.550000190734863z"></path></g></g><g transform="matrix(0.9943385720252991,0.10625847429037094,-0.10625847429037094,0.9943385720252991,553.5225219726562,220.3349609375)" opacity="1" style="display: block;"><g opacity="1" transform="matrix(1,0,0,1,321.1289978027344,395.8059997558594)"><path fill="rgb(255,254,255)" fill-opacity="1" d=" M-201.7010040283203,306.65899658203125 C-223.64614868164062,285.6122131347656 -236.7310028076172,256.9830017089844 -240.1820068359375,226.77200317382812 C-251.4290008544922,128.29200744628906 -313.6289978027344,-257.0769958496094 -199.86500549316406,-317.66400146484375 C-67.2229995727539,-388.30499267578125 234.6531219482422,-73.04535675048828 273.97698974609375,68.83300018310547 C310.7203674316406,201.3520050048828 130.1973114013672,273.749267578125 75.6323013305664,292.84228515625 C28.863304138183594,309.2082824707031 -136.88954162597656,368.9944763183594 -201.7010040283203,306.65899658203125z"></path><path stroke-linecap="round" stroke-linejoin="round" fill-opacity="0" stroke="rgb(52,52,52)" stroke-opacity="1" stroke-width="3" d=" M-201.7010040283203,306.65899658203125 C-223.64614868164062,285.6122131347656 -236.7310028076172,256.9830017089844 -240.1820068359375,226.77200317382812 C-251.4290008544922,128.29200744628906 -313.6289978027344,-257.0769958496094 -199.86500549316406,-317.66400146484375 C-67.2229995727539,-388.30499267578125 234.6531219482422,-73.04535675048828 273.97698974609375,68.83300018310547 C310.7203674316406,201.3520050048828 130.1973114013672,273.749267578125 75.6323013305664,292.84228515625 C28.863304138183594,309.2082824707031 -136.88954162597656,368.9944763183594 -201.7010040283203,306.65899658203125z"></path></g><g opacity="1" transform="matrix(1,0,0,1,357.8399963378906,611.1949462890625)"><path stroke-linecap="round" stroke-linejoin="round" fill-opacity="0" stroke="rgb(52,52,52)" stroke-opacity="1" stroke-width="3" d=" M-197.21087646484375,104.97891235351562 C-225.66734313964844,66.35074615478516 -138.63710021972656,-15.503366470336914 -18.61381721496582,-58.451812744140625 C101.40946960449219,-101.4006118774414 217.71121215820312,-110.1732406616211 227.5153045654297,-59.749664306640625"></path></g></g><g transform="matrix(0.9978567957878113,0.06543620675802231,-0.06543620675802231,0.9978567957878113,911.9537963867188,823.7879638671875)" opacity="1" style="display: block;"><g opacity="1" transform="matrix(1,0,0,1,80.9219970703125,122.62899780273438)"><path fill="rgb(0,0,0)" fill-opacity="1" d=" M64.71600341796875,111.76499938964844 C64.71600341796875,111.76499938964844 64.71600341796875,111.76499938964844 64.71600341796875,111.76499938964844 C58.29199981689453,115.12899780273438 50.358001708984375,112.6500015258789 46.99300003051758,106.22599792480469 C46.99300003051758,106.22599792480469 -67.68299865722656,-78.88500213623047 -67.68299865722656,-78.88500213623047 C-73.4219970703125,-89.84100341796875 -69.19200134277344,-103.3740005493164 -58.236000061035156,-109.11199951171875 C-46.74800109863281,-115.12899780273438 -32.56700134277344,-110.16000366210938 -27.347000122070312,-98.28800201416016 C-27.347000122070312,-98.28800201416016 70.64299774169922,94.8489990234375 70.64299774169922,94.8489990234375 C73.4219970703125,101.16899871826172 70.83200073242188,108.56199645996094 64.71600341796875,111.76499938964844z"></path><path stroke-linecap="round" stroke-linejoin="round" fill-opacity="0" stroke="rgb(0,0,0)" stroke-opacity="1" stroke-width="3" d=" M64.71600341796875,111.76499938964844 C64.71600341796875,111.76499938964844 64.71600341796875,111.76499938964844 64.71600341796875,111.76499938964844 C58.29199981689453,115.12899780273438 50.358001708984375,112.6500015258789 46.99300003051758,106.22599792480469 C46.99300003051758,106.22599792480469 -67.68299865722656,-78.88500213623047 -67.68299865722656,-78.88500213623047 C-73.4219970703125,-89.84100341796875 -69.19200134277344,-103.3740005493164 -58.236000061035156,-109.11199951171875 C-46.74800109863281,-115.12899780273438 -32.56700134277344,-110.16000366210938 -27.347000122070312,-98.28800201416016 C-27.347000122070312,-98.28800201416016 70.64299774169922,94.8489990234375 70.64299774169922,94.8489990234375 C73.4219970703125,101.16899871826172 70.83200073242188,108.56199645996094 64.71600341796875,111.76499938964844z"></path></g><g opacity="1" transform="matrix(0.847396194934845,0.028919976204633713,-0.03410818800330162,0.9994181394577026,148.68589782714844,207.38063049316406)"><path fill="rgb(0,0,0)" fill-opacity="1" d=" M18.858999252319336,-27.22800064086914 C28.256999969482422,-20.718000411987305 27.433000564575195,-3.250999927520752 17.01799964904785,11.78600025177002 C6.6020002365112305,26.823999404907227 -9.460000038146973,33.737998962402344 -18.857999801635742,27.229000091552734 C-28.256999969482422,20.7189998626709 -27.43199920654297,3.250999927520752 -17.017000198364258,-11.786999702453613 C-6.6020002365112305,-26.823999404907227 9.461000442504883,-33.737998962402344 18.858999252319336,-27.22800064086914z"></path><path stroke-linecap="round" stroke-linejoin="round" fill-opacity="0" stroke="rgb(0,0,0)" stroke-opacity="1" stroke-width="3" d=" M18.858999252319336,-27.22800064086914 C28.256999969482422,-20.718000411987305 27.433000564575195,-3.250999927520752 17.01799964904785,11.78600025177002 C6.6020002365112305,26.823999404907227 -9.460000038146973,33.737998962402344 -18.857999801635742,27.229000091552734 C-28.256999969482422,20.7189998626709 -27.43199920654297,3.250999927520752 -17.017000198364258,-11.786999702453613 C-6.6020002365112305,-26.823999404907227 9.461000442504883,-33.737998962402344 18.858999252319336,-27.22800064086914z"></path></g></g><g transform="matrix(0.9904138445854187,0.13813216984272003,-0.13813216984272003,0.9904138445854187,740.1564331054688,877.157958984375)" opacity="1" style="display: block;"><g opacity="1" transform="matrix(1,0,0,1,54.29600143432617,131.48599243164062)"><path fill="rgb(0,0,0)" fill-opacity="1" d=" M36.03300094604492,122.06700134277344 C36.03300094604492,122.06700134277344 36.03300094604492,122.06700134277344 36.03300094604492,122.06700134277344 C29.040000915527344,123.98600006103516 21.81599998474121,119.87300109863281 19.89699935913086,112.87999725341797 C19.89699935913086,112.87999725341797 -43.52299880981445,-93.03299713134766 -43.52299880981445,-93.03299713134766 C-46.79600143432617,-104.95899963378906 -39.78099822998047,-117.28099822998047 -27.854999542236328,-120.55400085449219 C-15.347999572753906,-123.98600006103516 -2.5510001182556152,-116.11000061035156 0.019999999552965164,-103.39900207519531 C0.019999999552965164,-103.39900207519531 45.426998138427734,106.802001953125 45.426998138427734,106.802001953125 C46.79600143432617,113.56900024414062 42.691001892089844,120.23999786376953 36.03300094604492,122.06700134277344z"></path><path stroke-linecap="round" stroke-linejoin="round" fill-opacity="0" stroke="rgb(0,0,0)" stroke-opacity="1" stroke-width="3" d=" M36.03300094604492,122.06700134277344 C36.03300094604492,122.06700134277344 36.03300094604492,122.06700134277344 36.03300094604492,122.06700134277344 C29.040000915527344,123.98600006103516 21.81599998474121,119.87300109863281 19.89699935913086,112.87999725341797 C19.89699935913086,112.87999725341797 -43.52299880981445,-93.03299713134766 -43.52299880981445,-93.03299713134766 C-46.79600143432617,-104.95899963378906 -39.78099822998047,-117.28099822998047 -27.854999542236328,-120.55400085449219 C-15.347999572753906,-123.98600006103516 -2.5510001182556152,-116.11000061035156 0.019999999552965164,-103.39900207519531 C0.019999999552965164,-103.39900207519531 45.426998138427734,106.802001953125 45.426998138427734,106.802001953125 C46.79600143432617,113.56900024414062 42.691001892089844,120.23999786376953 36.03300094604492,122.06700134277344z"></path></g><g opacity="1" transform="matrix(0.8469974994659424,-0.03888354450464249,0.045859210193157196,0.9989479184150696,70.385498046875,231.04434204101562)"><path fill="rgb(0,0,0)" fill-opacity="1" d=" M-26.68899917602539,-19.613000869750977 C-19.91900062561035,-28.826000213623047 -2.4820001125335693,-27.51300048828125 12.258999824523926,-16.680999755859375 C26.999000549316406,-5.848999977111816 33.45899963378906,10.399999618530273 26.68899917602539,19.613000869750977 C19.91900062561035,28.826000213623047 2.4820001125335693,27.51300048828125 -12.258999824523926,16.680999755859375 C-26.999000549316406,5.848999977111816 -33.45899963378906,-10.399999618530273 -26.68899917602539,-19.613000869750977z"></path><path stroke-linecap="round" stroke-linejoin="round" fill-opacity="0" stroke="rgb(0,0,0)" stroke-opacity="1" stroke-width="3" d=" M-26.68899917602539,-19.613000869750977 C-19.91900062561035,-28.826000213623047 -2.4820001125335693,-27.51300048828125 12.258999824523926,-16.680999755859375 C26.999000549316406,-5.848999977111816 33.45899963378906,10.399999618530273 26.68899917602539,19.613000869750977 C19.91900062561035,28.826000213623047 2.4820001125335693,27.51300048828125 -12.258999824523926,16.680999755859375 C-26.999000549316406,5.848999977111816 -33.45899963378906,-10.399999618530273 -26.68899917602539,-19.613000869750977z"></path></g></g><g mask="url(#__lottie_element_525_1)" style="display: block;"><g transform="matrix(0.9943385720252991,0.10625847429037094,-0.10625847429037094,0.9943385720252991,595.0638427734375,255.1016082763672)" opacity="1"><g opacity="1" transform="matrix(1,0,0,1,157.27000427246094,132.1510009765625)"><path fill="rgb(0,0,0)" fill-opacity="1" d=" M-175.72300720214844,145.0970001220703 C-175.72300720214844,145.0970001220703 -44.58100128173828,-42.74399948120117 186.08700561523438,-7.150000095367432 C186.08700561523438,-7.150000095367432 76.05500030517578,-211.31300354003906 -106.43000030517578,-135.65899658203125 C-245.8489990234375,-77.85900115966797 -175.72300720214844,145.0970001220703 -175.72300720214844,145.0970001220703z"></path></g></g></g><g transform="matrix(0.9943385720252991,0.10625847429037094,-0.10625847429037094,0.9943385720252991,863.8798217773438,572.609130859375)" opacity="1" style="display: block;"><g opacity="1" transform="matrix(1,0,0,1,35.55099868774414,25.368000030517578)"><path fill="rgb(0,221,179)" fill-opacity="1" d=" M22.30900001525879,12.779999732971191 C22.30900001525879,12.779999732971191 -1.2910000085830688,17.100000381469727 -1.2910000085830688,17.100000381469727 C-5.479000091552734,17.867000579833984 -10.715999603271484,15.871000289916992 -12.987000465393066,12.642999649047852 C-12.987000465393066,12.642999649047852 -25.7810001373291,-5.546999931335449 -25.7810001373291,-5.546999931335449 C-28.052000045776367,-8.776000022888184 -26.496999740600586,-12.015000343322754 -22.308000564575195,-12.781000137329102 C-22.308000564575195,-12.781000137329102 1.2910000085830688,-17.101999282836914 1.2910000085830688,-17.101999282836914 C5.479000091552734,-17.868000030517578 10.71500015258789,-15.871999740600586 12.984999656677246,-12.642999649047852 C12.984999656677246,-12.642999649047852 25.7810001373291,5.546999931335449 25.7810001373291,5.546999931335449 C28.052000045776367,8.774999618530273 26.49799919128418,12.012999534606934 22.30900001525879,12.779999732971191z"></path><path stroke-linecap="butt" stroke-linejoin="miter" fill-opacity="0" stroke-miterlimit="10" stroke="rgb(52,52,52)" stroke-opacity="1" stroke-width="3" d=" M22.30900001525879,12.779999732971191 C22.30900001525879,12.779999732971191 -1.2910000085830688,17.100000381469727 -1.2910000085830688,17.100000381469727 C-5.479000091552734,17.867000579833984 -10.715999603271484,15.871000289916992 -12.987000465393066,12.642999649047852 C-12.987000465393066,12.642999649047852 -25.7810001373291,-5.546999931335449 -25.7810001373291,-5.546999931335449 C-28.052000045776367,-8.776000022888184 -26.496999740600586,-12.015000343322754 -22.308000564575195,-12.781000137329102 C-22.308000564575195,-12.781000137329102 1.2910000085830688,-17.101999282836914 1.2910000085830688,-17.101999282836914 C5.479000091552734,-17.868000030517578 10.71500015258789,-15.871999740600586 12.984999656677246,-12.642999649047852 C12.984999656677246,-12.642999649047852 25.7810001373291,5.546999931335449 25.7810001373291,5.546999931335449 C28.052000045776367,8.774999618530273 26.49799919128418,12.012999534606934 22.30900001525879,12.779999732971191z"></path></g><g opacity="1" transform="matrix(1,0,0,1,35.54899978637695,25.408000946044922)"><path fill="rgb(52,52,52)" fill-opacity="1" d=" M4.206999778747559,-12.041999816894531 C5.4710001945495605,-12.119000434875488 6.863999843597412,-11.425000190734863 7.322000026702881,-10.491999626159668 C7.7789998054504395,-9.557999610900879 7.125999927520752,-8.73799991607666 5.861999988555908,-8.66100025177002 C3.624000072479248,-8.52400016784668 2.255000114440918,-5.478000164031982 2.3480000495910645,0.25999999046325684 C2.4660000801086426,7.585000038146973 0.5049999952316284,11.437999725341797 -4.01800012588501,11.973999977111816 C-5.244999885559082,12.119000434875488 -6.684000015258789,11.486000061035156 -7.23199987411499,10.560999870300293 C-7.78000020980835,9.635000228881836 -7.230999946594238,8.767000198364258 -6.004000186920166,8.621000289916992 C-3.7699999809265137,8.357000350952148 -2.424999952316284,5.197000026702881 -2.5190000534057617,-0.5920000076293945 C-2.638000011444092,-7.964000225067139 -0.5659999847412109,-11.75 4.206999778747559,-12.041999816894531z"></path></g></g><g transform="matrix(0.9943385720252991,0.10625847429037094,-0.10625847429037094,0.9943385720252991,649.512451171875,444.64532470703125)" opacity="1" style="display: block;"><g opacity="1" transform="matrix(1,0,0,1,133.62100219726562,108.02100372314453)"><path fill="rgb(255,254,255)" fill-opacity="1" d=" M124.20700073242188,-8.789999961853027 C33.595001220703125,-9.656000137329102 -40.99800109863281,29.339000701904297 -103.01699829101562,99.62100219726562 C-103.81199645996094,100.52200317382812 -105.29199981689453,100.11399841308594 -105.50199890136719,98.93099975585938 C-105.50199890136719,98.93099975585938 -126.04299926757812,-16.930999755859375 -126.04299926757812,-16.930999755859375 C-126.12200164794922,-17.375 -125.98799896240234,-17.832000732421875 -125.68199920654297,-18.163000106811523 C-79.35800170898438,-68.36699676513672 -21.5049991607666,-95.41600036621094 47.28900146484375,-100.48799896240234 C47.74399948120117,-100.52100372314453 48.189998626708984,-100.33799743652344 48.487998962402344,-99.99299621582031 C48.487998962402344,-99.99299621582031 125.31199645996094,-11.154999732971191 125.31199645996094,-11.154999732971191 C126.12100219726562,-10.220000267028809 125.44400024414062,-8.777999877929688 124.20700073242188,-8.789999961853027z"></path><path stroke-linecap="butt" stroke-linejoin="miter" fill-opacity="0" stroke-miterlimit="10" stroke="rgb(52,52,52)" stroke-opacity="1" stroke-width="3" d=" M124.20700073242188,-8.789999961853027 C33.595001220703125,-9.656000137329102 -40.99800109863281,29.339000701904297 -103.01699829101562,99.62100219726562 C-103.81199645996094,100.52200317382812 -105.29199981689453,100.11399841308594 -105.50199890136719,98.93099975585938 C-105.50199890136719,98.93099975585938 -126.04299926757812,-16.930999755859375 -126.04299926757812,-16.930999755859375 C-126.12200164794922,-17.375 -125.98799896240234,-17.832000732421875 -125.68199920654297,-18.163000106811523 C-79.35800170898438,-68.36699676513672 -21.5049991607666,-95.41600036621094 47.28900146484375,-100.48799896240234 C47.74399948120117,-100.52100372314453 48.189998626708984,-100.33799743652344 48.487998962402344,-99.99299621582031 C48.487998962402344,-99.99299621582031 125.31199645996094,-11.154999732971191 125.31199645996094,-11.154999732971191 C126.12100219726562,-10.220000267028809 125.44400024414062,-8.777999877929688 124.20700073242188,-8.789999961853027z"></path></g><g opacity="1" transform="matrix(1,0,0,1,174.41900634765625,52.742000579833984)"><path fill="rgb(52,52,52)" fill-opacity="1" d=" M7.0370001792907715,-4.921999931335449 C10.644000053405762,0.23499999940395355 10.418000221252441,6.61899995803833 6.5320000648498535,9.336999893188477 C2.6459999084472656,12.055000305175781 -3.430000066757202,10.079000473022461 -7.0370001792907715,4.922999858856201 C-10.644000053405762,-0.23399999737739563 -10.418000221252441,-6.618000030517578 -6.5320000648498535,-9.336000442504883 C-2.6459999084472656,-12.055000305175781 3.430000066757202,-10.079000473022461 7.0370001792907715,-4.921999931335449z"></path></g><g opacity="1" transform="matrix(1,0,0,1,55.45000076293945,104.98300170898438)"><path fill="rgb(52,52,52)" fill-opacity="1" d=" M13.237000465393066,-6.683000087738037 C8.644000053405762,-10.385000228881836 0.37400001287460327,-8.404999732971191 -3.803999900817871,-6.159999847412109 C-7.98199987411499,-3.9149999618530273 -13.307000160217285,4.295000076293945 -12.119999885559082,8.663000106811523 C-10.470000267028809,14.736000061035156 -9.140000343322754,1.6009999513626099 -2.0820000171661377,-2.49399995803833 C5.671999931335449,-6.993000030517578 18.136999130249023,-2.7339999675750732 13.237000465393066,-6.683000087738037z"></path></g><g opacity="1" transform="matrix(1,0,0,1,123.61399841308594,100.73799896240234)"><path stroke-linecap="butt" stroke-linejoin="miter" fill-opacity="0" stroke-miterlimit="10" stroke="rgb(52,52,52)" stroke-opacity="1" stroke-width="3" d=" M4.76200008392334,-2.072000026702881 C6.263000011444092,1.3769999742507935 5.3470001220703125,5.099999904632568 2.7170000076293945,6.244999885559082 C0.08699999749660492,7.388999938964844 -3.260999917984009,5.520999908447266 -4.76200008392334,2.072000026702881 C-6.263000011444092,-1.3769999742507935 -5.3470001220703125,-5.099999904632568 -2.7170000076293945,-6.24399995803833 C-0.08699999749660492,-7.388999938964844 3.260999917984009,-5.520999908447266 4.76200008392334,-2.072000026702881z"></path></g><g opacity="0" transform="matrix(1,0,0,1,0,0)"><path stroke-linecap="round" stroke-linejoin="miter" fill-opacity="0" stroke-miterlimit="4" stroke="rgb(52,52,52)" stroke-opacity="1" stroke-width="5" d=" M44.25299835205078,102.75499725341797 C44.25299835205078,102.75499725341797 47.70199966430664,117.875 59.35900115966797,111.0250015258789 C70.44200134277344,104.51200103759766 62.72700119018555,95.5989990234375 62.72700119018555,95.5989990234375"></path></g></g><g transform="matrix(0.9980675578117371,0.06213882192969322,-0.06213882192969322,0.9980675578117371,467.8395690917969,767.8660278320312)" opacity="1" style="display: block;"><g opacity="1" transform="matrix(1,0,0,1,75.8489990234375,49.30799865722656)"><path fill="rgb(0,0,0)" fill-opacity="1" d=" M75.5989990234375,24.655000686645508 C75.5989990234375,24.655000686645508 -42.06100082397461,-49.05699920654297 -42.06100082397461,-49.05699920654297 C-42.06100082397461,-49.05699920654297 -75.5989990234375,-36.06999969482422 -75.5989990234375,-36.06999969482422 C-75.5989990234375,-36.06999969482422 74.74600219726562,49.05699920654297 74.74600219726562,49.05699920654297 C74.74600219726562,49.05699920654297 75.5989990234375,24.655000686645508 75.5989990234375,24.655000686645508z"></path></g></g></g></g><g transform="matrix(0.999972939491272,0.007363330107182264,-0.007363330107182264,0.999972939491272,53.30480194091797,97.26821899414062)" opacity="1" style="display: block;"><g opacity="1" transform="matrix(1,0,0,1,507.7829895019531,680.6320190429688)"><path fill="rgb(0,221,179)" fill-opacity="1" d=" M63.60200119018555,110.48300170898438 C61.82099914550781,111.52300262451172 59.8650016784668,112.00700378417969 57.93899917602539,112.00700378417969 C54.027000427246094,112.00700378417969 50.22800064086914,109.98899841308594 48.12799835205078,106.36499786376953 C48.12799835205078,106.36499786376953 -62.53099822998047,-84.69300079345703 -62.53099822998047,-84.69300079345703 C-62.53099822998047,-84.69300079345703 -67.802001953125,-93.80400085449219 -67.802001953125,-93.80400085449219 C-70.86000061035156,-99.08599853515625 -69.1709976196289,-105.83000183105469 -64.03399658203125,-109.052001953125 C-63.91999816894531,-109.13500213623047 -63.797000885009766,-109.20700073242188 -63.67300033569336,-109.27899932861328 C-63.12799835205078,-109.5979995727539 -62.5620002746582,-109.86599731445312 -61.994998931884766,-110.0719985961914 C-56.89899826049805,-112.00700378417969 -51.0099983215332,-110.0199966430664 -48.19900131225586,-105.1500015258789 C-48.19900131225586,-105.1500015258789 -42.24800109863281,-94.875 -42.24800109863281,-94.875 C-42.24800109863281,-94.875 67.73100280761719,95.00800323486328 67.73100280761719,95.00800323486328 C70.86000061035156,100.42400360107422 69.01799774169922,107.35299682617188 63.60200119018555,110.48300170898438z"></path><path stroke-linecap="butt" stroke-linejoin="miter" fill-opacity="0" stroke-miterlimit="10" stroke="rgb(52,52,52)" stroke-opacity="1" stroke-width="3" d=" M63.60200119018555,110.48300170898438 C61.82099914550781,111.52300262451172 59.8650016784668,112.00700378417969 57.93899917602539,112.00700378417969 C54.027000427246094,112.00700378417969 50.22800064086914,109.98899841308594 48.12799835205078,106.36499786376953 C48.12799835205078,106.36499786376953 -62.53099822998047,-84.69300079345703 -62.53099822998047,-84.69300079345703 C-62.53099822998047,-84.69300079345703 -67.802001953125,-93.80400085449219 -67.802001953125,-93.80400085449219 C-70.86000061035156,-99.08599853515625 -69.1709976196289,-105.83000183105469 -64.03399658203125,-109.052001953125 C-63.91999816894531,-109.13500213623047 -63.797000885009766,-109.20700073242188 -63.67300033569336,-109.27899932861328 C-63.12799835205078,-109.5979995727539 -62.5620002746582,-109.86599731445312 -61.994998931884766,-110.0719985961914 C-56.89899826049805,-112.00700378417969 -51.0099983215332,-110.0199966430664 -48.19900131225586,-105.1500015258789 C-48.19900131225586,-105.1500015258789 -42.24800109863281,-94.875 -42.24800109863281,-94.875 C-42.24800109863281,-94.875 67.73100280761719,95.00800323486328 67.73100280761719,95.00800323486328 C70.86000061035156,100.42400360107422 69.01799774169922,107.35299682617188 63.60200119018555,110.48300170898438z"></path></g><g opacity="1" transform="matrix(1,0,0,1,320.0929870605469,315.2590026855469)"><path fill="rgb(0,221,179)" fill-opacity="1" d=" M250.10800170898438,-165.93600463867188 C204.4980010986328,-232.7449951171875 135.60000610351562,-277.78900146484375 56.10599899291992,-292.7690124511719 C-23.386999130249023,-307.7590026855469 -103.95099639892578,-290.8949890136719 -170.75900268554688,-245.28500366210938 C-237.5679931640625,-199.6649932861328 -282.61199951171875,-130.76600646972656 -297.60198974609375,-51.28300094604492 C-312.5929870605469,28.209999084472656 -295.7279968261719,108.78399658203125 -250.10800170898438,175.59300231933594 C-204.4980010986328,242.4010009765625 -135.60000610351562,287.44500732421875 -56.106998443603516,302.4360046386719 C-37.18299865722656,305.99798583984375 -18.20800018310547,307.7590026855469 0.6330000162124634,307.7590026855469 C43.659000396728516,307.7590026855469 85.96399688720703,298.57501220703125 125.15899658203125,280.6809997558594 C132.02699279785156,277.5509948730469 138.79100036621094,274.15301513671875 145.44200134277344,270.49798583984375 C154.07000732421875,265.75201416015625 162.5229949951172,260.56298828125 170.75900268554688,254.9409942626953 C237.5679931640625,209.33200073242188 282.61199951171875,140.43299865722656 297.60198974609375,60.939998626708984 C312.5929870605469,-18.55299949645996 295.7179870605469,-99.12799835205078 250.10800170898438,-165.93600463867188z M275.3429870605469,56.73899841308594 C261.4750061035156,130.29100036621094 219.79800415039062,194.03199768066406 157.9929962158203,236.23399353027344 C147.572998046875,243.3489990234375 136.7830047607422,249.71099853515625 125.69499969482422,255.302001953125 C125.01499938964844,255.64199829101562 124.33599853515625,255.9810028076172 123.65599822998047,256.3210144042969 C85.21199798583984,275.3169860839844 43.28799819946289,285.1080017089844 0.5920000076293945,285.1080017089844 C-16.839000701904297,285.1080017089844 -34.41400146484375,283.47100830078125 -51.91600036621094,280.1759948730469 C-125.45800018310547,266.3080139160156 -189.20899963378906,224.63099670410156 -231.4010009765625,162.8260040283203 C-273.6029968261719,101.01100158691406 -289.21099853515625,26.469999313354492 -275.3429870605469,-47.08300018310547 C-261.4750061035156,-120.625 -219.79800415039062,-184.37600708007812 -157.9929962158203,-226.5780029296875 C-110.88999938964844,-258.73199462890625 -56.404998779296875,-275.4419860839844 -0.5920000076293945,-275.4419860839844 C16.839000701904297,-275.4419860839844 34.40299987792969,-273.81500244140625 51.90599822998047,-270.5199890136719 C125.45800018310547,-256.6520080566406 189.19900512695312,-214.97500610351562 231.4010009765625,-153.16000366210938 C273.6029968261719,-91.35399627685547 289.21099853515625,-16.80299949645996 275.3429870605469,56.73899841308594z"></path><path stroke-linecap="butt" stroke-linejoin="miter" fill-opacity="0" stroke-miterlimit="10" stroke="rgb(52,52,52)" stroke-opacity="1" stroke-width="3" d=" M250.10800170898438,-165.93600463867188 C204.4980010986328,-232.7449951171875 135.60000610351562,-277.78900146484375 56.10599899291992,-292.7690124511719 C-23.386999130249023,-307.7590026855469 -103.95099639892578,-290.8949890136719 -170.75900268554688,-245.28500366210938 C-237.5679931640625,-199.6649932861328 -282.61199951171875,-130.76600646972656 -297.60198974609375,-51.28300094604492 C-312.5929870605469,28.209999084472656 -295.7279968261719,108.78399658203125 -250.10800170898438,175.59300231933594 C-204.4980010986328,242.4010009765625 -135.60000610351562,287.44500732421875 -56.106998443603516,302.4360046386719 C-37.18299865722656,305.99798583984375 -18.20800018310547,307.7590026855469 0.6330000162124634,307.7590026855469 C43.659000396728516,307.7590026855469 85.96399688720703,298.57501220703125 125.15899658203125,280.6809997558594 C132.02699279785156,277.5509948730469 138.79100036621094,274.15301513671875 145.44200134277344,270.49798583984375 C154.07000732421875,265.75201416015625 162.5229949951172,260.56298828125 170.75900268554688,254.9409942626953 C237.5679931640625,209.33200073242188 282.61199951171875,140.43299865722656 297.60198974609375,60.939998626708984 C312.5929870605469,-18.55299949645996 295.7179870605469,-99.12799835205078 250.10800170898438,-165.93600463867188z M275.3429870605469,56.73899841308594 C261.4750061035156,130.29100036621094 219.79800415039062,194.03199768066406 157.9929962158203,236.23399353027344 C147.572998046875,243.3489990234375 136.7830047607422,249.71099853515625 125.69499969482422,255.302001953125 C125.01499938964844,255.64199829101562 124.33599853515625,255.9810028076172 123.65599822998047,256.3210144042969 C85.21199798583984,275.3169860839844 43.28799819946289,285.1080017089844 0.5920000076293945,285.1080017089844 C-16.839000701904297,285.1080017089844 -34.41400146484375,283.47100830078125 -51.91600036621094,280.1759948730469 C-125.45800018310547,266.3080139160156 -189.20899963378906,224.63099670410156 -231.4010009765625,162.8260040283203 C-273.6029968261719,101.01100158691406 -289.21099853515625,26.469999313354492 -275.3429870605469,-47.08300018310547 C-261.4750061035156,-120.625 -219.79800415039062,-184.37600708007812 -157.9929962158203,-226.5780029296875 C-110.88999938964844,-258.73199462890625 -56.404998779296875,-275.4419860839844 -0.5920000076293945,-275.4419860839844 C16.839000701904297,-275.4419860839844 34.40299987792969,-273.81500244140625 51.90599822998047,-270.5199890136719 C125.45800018310547,-256.6520080566406 189.19900512695312,-214.97500610351562 231.4010009765625,-153.16000366210938 C273.6029968261719,-91.35399627685547 289.21099853515625,-16.80299949645996 275.3429870605469,56.73899841308594z"></path></g><g opacity="1" transform="matrix(1,0,0,1,320.0920104980469,321.1990051269531)"><path stroke-linecap="butt" stroke-linejoin="miter" fill-opacity="0" stroke-miterlimit="10" stroke="rgb(52,52,52)" stroke-opacity="1" stroke-width="0.75" d=" M275.3429870605469,51.90599822998047 C261.4750061035156,125.45800018310547 219.79800415039062,189.19900512695312 157.9929962158203,231.4010009765625 C147.572998046875,238.51600646972656 136.7830047607422,244.8780059814453 125.69499969482422,250.468994140625 C125.12899780273438,250.6750030517578 124.56199645996094,250.94200134277344 124.01699829101562,251.26100158691406 C123.89299774169922,251.33399963378906 123.7699966430664,251.406005859375 123.65599822998047,251.48800659179688 C85.21199798583984,270.4840087890625 43.28799819946289,280.2749938964844 0.5920000076293945,280.2749938964844 C-16.839000701904297,280.2749938964844 -34.41400146484375,278.63800048828125 -51.91600036621094,275.3429870605469 C-125.45800018310547,261.4750061035156 -189.20899963378906,219.79800415039062 -231.4010009765625,157.9929962158203 C-273.6029968261719,96.177001953125 -289.21099853515625,21.636999130249023 -275.3429870605469,-51.91600036621094 C-261.4750061035156,-125.45800018310547 -219.79800415039062,-189.20899963378906 -157.9929962158203,-231.41099548339844 C-110.88999938964844,-263.56500244140625 -56.404998779296875,-280.2749938964844 -0.5920000076293945,-280.2749938964844 C16.839000701904297,-280.2749938964844 34.40299987792969,-278.64801025390625 51.90599822998047,-275.3529968261719 C125.45800018310547,-261.4849853515625 189.19900512695312,-219.80799865722656 231.4010009765625,-157.99200439453125 C273.6029968261719,-96.18699645996094 289.21099853515625,-21.63599967956543 275.3429870605469,51.90599822998047z"></path></g></g><g transform="matrix(0.9510565400123596,0.30901700258255005,-0.30901700258255005,0.9510565400123596,537.1168212890625,751.5678100585938)" opacity="1" style="display: block;"><g opacity="1" transform="matrix(1,0,0,1,35.85200119018555,29.926000595092773)"><path fill="rgb(0,0,0)" fill-opacity="1" d=" M9.043999671936035,-28.093000411987305 C11.925000190734863,-29.677000045776367 15.45300006866455,-29.618000030517578 18.235000610351562,-27.86400032043457 C26.06100082397461,-22.929000854492188 29.007999420166016,-14.17300033569336 31.201000213623047,-6.1529998779296875 C33.78200149536133,3.2869999408721924 35.60100173950195,14.682000160217285 25.725000381469727,22.488000869750977 C18.79400062561035,27.966999053955078 7.690000057220459,29.676000595092773 -0.9869999885559082,27.726999282836914 C-9.663999557495117,25.77899932861328 -16.073999404907227,20.716999053955078 -20.128999710083008,14.859999656677246 C-35.60200119018555,-7.485000133514404 -16.170000076293945,-14.227999687194824 9.043999671936035,-28.093000411987305z"></path></g></g><g transform="matrix(1.0619934797286987,0.052828460931777954,-0.052828460931777954,1.0619934797286987,864.0221557617188,185.9237060546875)" opacity="1" style="display: block;"><g opacity="1" transform="matrix(1,0,0,1,17.96299934387207,25.764999389648438)"><path fill="rgb(52,52,52)" fill-opacity="1" d=" M15.581999778747559,-4.959000110626221 C17.31399917602539,-9.572999954223633 17.714000701904297,-15.277000427246094 14.739999771118164,-19.492000579833984 C11.949000358581543,-23.447999954223633 7.197999954223633,-25.37700080871582 2.447999954223633,-25.437000274658203 C-3.7100000381469727,-25.513999938964844 -9.288000106811523,-22.327999114990234 -14.413999557495117,-19.27400016784668 C-17.71299934387207,-17.308000564575195 -14.713000297546387,-12.142000198364258 -11.39900016784668,-14.116999626159668 C-7.4039998054504395,-16.496999740600586 -2.992000102996826,-19.322999954223633 1.809999942779541,-19.459999084472656 C5.202000141143799,-19.55699920654297 9.170000076293945,-18.302000045776367 10.494000434875488,-14.857999801635742 C12.079999923706055,-10.729000091552734 9.788000106811523,-6.067999839782715 7.843999862670898,-2.497999906539917 C5.5289998054504395,1.7510000467300415 3.0179998874664307,5.9770002365112305 2.5460000038146973,10.890999794006348 C2.078000068664551,15.748000144958496 3.884000062942505,20.81399917602539 8.126999855041504,23.4689998626709 C11.395999908447266,25.513999938964844 14.397000312805176,20.347999572753906 11.142000198364258,18.31100082397461 C8.164999961853027,16.447999954223633 8.038000106811523,12.142000198364258 8.918999671936035,9.067000389099121 C10.35099983215332,4.071000099182129 13.760000228881836,-0.10700000077486038 15.581999778747559,-4.959000110626221z"></path></g><g opacity="1" transform="matrix(1,0,0,1,38.03200149536133,72.42400360107422)"><path fill="rgb(52,52,52)" fill-opacity="1" d=" M0,-2.986999988555908 C-3.8440001010894775,-2.986999988555908 -3.8499999046325684,2.986999988555908 0,2.986999988555908 C3.8440001010894775,2.986999988555908 3.8499999046325684,-2.986999988555908 0,-2.986999988555908z"></path></g></g></g></svg>