<?xml version="1.0" encoding="UTF-8" standalone="no"?>
<!DOCTYPE svg PUBLIC "-//W3C//DTD SVG 1.1//EN" "http://www.w3.org/Graphics/SVG/1.1/DTD/svg11.dtd">
<svg xmlns="http://www.w3.org/2000/svg" version="1.1" viewBox="0.00 0.00 279.00 300.00">
<path fill="#ffffff" d="
  M 229.61 189.55
  Q 231.78 190.61 234.15 191.65
  Q 237.30 193.02 235.74 196.48
  C 220.56 230.12 189.90 253.97 153.55 260.24
  Q 149.41 260.95 144.93 261.12
  C 141.06 261.26 137.27 262.13 133.49 261.76
  C 126.47 261.07 119.42 260.85 112.40 259.28
  Q 81.81 252.40 59.57 230.96
  Q 32.81 205.16 26.58 167.71
  C 25.84 163.24 25.98 158.78 25.32 154.28
  C 24.61 149.41 25.74 144.72 25.92 139.89
  Q 26.04 136.67 26.55 133.51
  Q 32.17 98.64 56.12 73.48
  Q 81.37 46.96 118.40 40.62
  C 123.32 39.78 128.45 40.00 133.44 39.11
  A 11.16 11.11 44.2 0 1 137.13 39.07
  C 142.66 39.93 147.87 39.82 153.17 40.72
  C 190.12 47.03 220.55 70.84 235.97 104.85
  Q 236.57 106.17 235.63 107.29
  C 234.21 108.99 231.82 109.27 230.39 109.99
  Q 227.24 111.58 223.88 113.10
  A 2.33 2.33 0.0 0 1 220.79 111.92
  Q 216.64 102.55 211.39 95.44
  Q 201.34 81.83 187.48 72.31
  Q 176.87 65.03 162.22 60.64
  Q 152.77 57.80 142.62 57.19
  Q 103.77 54.82 75.39 78.95
  Q 47.96 102.26 43.46 138.72
  Q 42.75 144.43 42.89 152.13
  C 43.23 171.77 49.28 189.82 61.16 205.73
  C 63.49 208.85 65.93 212.09 68.61 214.81
  C 86.13 232.55 109.20 242.86 134.13 243.05
  Q 175.40 243.35 203.66 213.88
  Q 209.20 208.11 213.34 201.87
  Q 217.48 195.65 220.75 188.07
  A 2.38 2.38 0.0 0 1 223.93 186.86
  Q 226.83 188.19 229.61 189.55
  Z"
/>
<path fill="#ffffff" d="
  M 102.10 121.17
  Q 100.91 120.49 99.93 120.17
  Q 98.68 119.77 99.99 119.77
  Q 114.50 119.85 130.08 119.79
  Q 130.15 119.79 130.14 119.86
  Q 130.12 119.97 130.12 119.90
  Q 130.13 119.83 130.05 119.83
  Q 127.47 120.03 127.16 122.23
  Q 126.22 129.04 128.61 134.70
  Q 136.28 152.86 144.92 172.67
  A 2.54 2.50 44.6 0 1 144.95 174.59
  L 137.22 193.80
  A 0.97 0.97 0.0 0 1 135.44 193.83
  Q 122.63 164.72 109.04 133.66
  Q 106.18 127.13 102.73 121.76
  A 1.84 1.78 -0.9 0 0 102.10 121.17
  Z"
/>
<path fill="#ffffff" d="
  M 173.05 120.66
  Q 172.74 121.21 172.09 121.18
  Q 171.54 121.15 171.13 121.53
  Q 167.32 125.15 166.15 126.93
  Q 161.94 133.40 157.62 143.32
  Q 157.55 143.49 157.53 143.30
  Q 157.52 143.22 157.59 143.25
  Q 157.66 143.27 157.67 143.19
  Q 158.01 140.14 158.43 137.71
  C 159.16 133.47 158.87 130.22 157.52 126.36
  Q 156.60 123.73 153.84 121.51
  C 153.07 120.89 152.31 121.11 151.69 120.37
  Q 151.32 119.94 150.76 119.99
  Q 149.87 120.07 148.97 119.91
  Q 148.16 119.77 148.98 119.77
  Q 161.90 119.84 175.28 119.78
  Q 175.44 119.78 175.44 119.94
  L 175.44 119.94
  Q 175.44 120.00 175.38 120.01
  Q 174.54 120.17 173.77 120.21
  Q 173.29 120.24 173.05 120.66
  Z"
/>
</svg>
