<svg width="394" height="80" viewBox="0 0 394 80" fill="none" xmlns="http://www.w3.org/2000/svg">
<g clip-path="url(#clip0_228_2)">
<path d="M262 0H330.5V12.7H303.3V79.3H289.7V12.7H262V0ZM149 0V12.7H94V33.1H138.3V45.7H94V66.7H149V79.3H80.5V0H149.2H149ZM183.3 0H165.5L229.3 79.4H247.2L215.2 39.7L247.2 0.1H229.3L206.3 28.7L183.3 0.1V0ZM201.6 56.7L192.6 45.7L165.5 79.4H183.3L201.6 56.7Z" fill="#1463BD"/>
<path d="M81 79.3L17 0H0V79.3H13.6V17L63.8 79.3H81ZM333.6 78.9C332.6 78.9 331.8 78.5 331.1 77.9C330.4 77.3 330 76.3 330 75.3C330 74.3 330.3 73.5 331 72.8C331.7 72.1 332.6 71.8 333.6 71.8C334.6 71.8 335.4 72.1 336.1 72.8C336.686 73.3344 337.066 74.0566 337.176 74.8418C337.285 75.6269 337.117 76.4257 336.7 77.1C336.387 77.6242 335.95 78.0629 335.426 78.377C334.903 78.691 334.31 78.8707 333.7 78.9H333.6ZM356.8 45.4H362.8V68.7C362.8 70.8 362.4 72.7 361.5 74.2C360.598 75.7093 359.278 76.9249 357.7 77.7C356.1 78.5 354.2 79 352 79C350 79 348.3 78.6 346.7 78C345.1 77.4 343.9 76.2 343 74.8C342.1 73.5 341.6 71.8 341.6 69.8H347.6C347.7 70.6 347.9 71.4 348.3 72C348.7 72.6 349.3 73.2 349.9 73.5C350.6 73.9 351.4 74 352.3 74C353.3 74 354.1 73.8 354.7 73.4C355.406 72.9786 355.964 72.3501 356.3 71.6C356.6 70.8 356.8 69.8 356.8 68.6V45.5V45.4ZM387.7 54.5C387.639 53.8341 387.428 53.1909 387.081 52.6191C386.735 52.0473 386.262 51.5619 385.7 51.2C384.41 50.4079 382.911 50.0244 381.4 50.1C380.1 50.1 379 50.3 378.1 50.6C377.2 51 376.5 51.6 376.1 52.2C375.646 52.7556 375.374 53.4373 375.32 54.1528C375.266 54.8682 375.434 55.5829 375.8 56.2C376.1 56.7 376.5 57.1 377.1 57.4L378.9 58.4L380.9 58.9L384.1 59.7C385.4 60 386.6 60.4 387.8 60.9C388.946 61.3456 390.024 61.9516 391 62.7C391.965 63.4811 392.737 64.4736 393.257 65.6006C393.777 66.7276 394.031 67.9591 394 69.2C394 71.2 393.5 72.9 392.5 74.3C391.398 75.8634 389.871 77.0781 388.1 77.8C386.3 78.6 384 79 381.3 79C378.7 79 376.4 78.6 374.5 77.8C372.5 77 371.1 75.8 370 74.3C368.888 72.6446 368.296 70.6944 368.3 68.7H374.3C374.335 69.7348 374.691 70.733 375.318 71.557C375.945 72.381 376.812 72.99 377.8 73.3C378.8 73.7 380 73.9 381.2 73.9C382.5 73.9 383.7 73.7 384.7 73.3C385.7 72.9 386.5 72.3 387.1 71.6C387.619 70.9076 387.9 70.0655 387.9 69.2C387.9 68.3 387.7 67.6 387.2 67C386.556 66.4543 385.851 65.9845 385.1 65.6L381.9 64.6L378.1 63.6C375.3 62.9 373.1 61.9 371.5 60.4C370.702 59.6879 370.072 58.8068 369.657 57.8208C369.242 56.8348 369.051 55.7687 369.1 54.7C369.084 52.889 369.684 51.1262 370.8 49.7C371.875 48.1514 373.365 46.9381 375.1 46.2C377.1 45.4 379.1 45 381.5 45C383.8 45 385.9 45.4 387.7 46.2C389.5 47 390.9 48.2 392 49.6C393 51 393.5 52.6 393.5 54.6H387.7V54.5Z" fill="#1463BD"/>
</g>
<defs>
<clipPath id="clip0_228_2">
<rect width="394" height="80" fill="white"/>
</clipPath>
</defs>
</svg>
